<?xml version="1.0" encoding="UTF-8" standalone="no"?>
<!-- Created with Inkscape (http://www.inkscape.org/) -->

<svg
   xmlns:dc="http://purl.org/dc/elements/1.1/"
   xmlns:cc="http://creativecommons.org/ns#"
   xmlns:rdf="http://www.w3.org/1999/02/22-rdf-syntax-ns#"
   xmlns:svg="http://www.w3.org/2000/svg"
   xmlns="http://www.w3.org/2000/svg"
   xmlns:sodipodi="http://sodipodi.sourceforge.net/DTD/sodipodi-0.dtd"
   xmlns:inkscape="http://www.inkscape.org/namespaces/inkscape"
   version="1.1"
   id="svg2"
   width="864"
   height="1497"
   viewBox="0 0 864 1497"
   sodipodi:docname="acheron.svg"
   inkscape:version="0.92.4 5da689c313, 2019-01-14">
  <metadata
     id="metadata8">
    <rdf:RDF>
      <cc:Work
         rdf:about="">
        <dc:format>image/svg+xml</dc:format>
        <dc:type
           rdf:resource="http://purl.org/dc/dcmitype/StillImage" />
        <dc:title></dc:title>
      </cc:Work>
    </rdf:RDF>
  </metadata>
  <defs
     id="defs6" />
  <sodipodi:namedview
     pagecolor="#ffffff"
     bordercolor="#666666"
     borderopacity="1"
     objecttolerance="10"
     gridtolerance="10"
     guidetolerance="10"
     inkscape:pageopacity="0"
     inkscape:pageshadow="2"
     inkscape:window-width="1920"
     inkscape:window-height="1052"
     id="namedview4"
     showgrid="false"
     inkscape:zoom="0.05573721"
     inkscape:cx="8528.253"
     inkscape:cy="-110.10897"
     inkscape:window-x="1920"
     inkscape:window-y="200"
     inkscape:window-maximized="1"
     inkscape:current-layer="svg2" />
  <rect
     style="fill:#ffffff;fill-opacity:1;stroke:#000000;stroke-width:11.33858299;stroke-linecap:round;stroke-linejoin:round;stroke-miterlimit:4;stroke-dasharray:none;stroke-dashoffset:0;stroke-opacity:1"
     id="rect1018"
     width="16340.135"
     height="3831.3049"
     x="-4008.915"
     y="-1268.6439" />
  <path
     sodipodi:nodetypes="sccccsscccccccssccccscs"
     inkscape:connector-curvature="0"
     id="path821"
     d="m 503.8373,993.00579 c -6.54701,-27.76362 -47.59501,-208.94357 -14.0624,-232.15845 0,0 124.54549,-40.74215 253.28823,-127.65983 l 0.79175,134.64838 -202.58479,131.59381 c 19.06267,129.514 -13.06769,574.702 -12.63742,574.3958 256.36824,-182.4531 285.00161,-386.4041 284.87082,-386.797 -32.25171,-96.89692 -54.01891,-228.64102 25.79967,-265.82698 0.23783,-31.02547 -4.80755,-37.54826 -23.69778,-60.35395 C 863.13927,411.59106 753.37306,195.92592 483.56977,84.028288 434.27647,49.989097 426.66221,25.125094 426.66221,25.125094 c 0,0 -7.61426,24.864003 -56.90756,58.903194 C 99.951362,195.92592 -9.81485,411.59106 37.719044,760.84757 c -18.89023,22.80569 -23.93561,29.32848 -23.697787,60.35395 79.818582,37.18596 58.051379,168.93006 25.799672,265.82698 -0.130788,0.3929 28.502584,204.3439 284.870821,386.797 0.43027,0.3062 -31.70009,-444.8818 -12.63742,-574.3958 L 109.46954,767.83589 110.26129,633.18751 c 128.74274,86.91768 253.28823,127.65983 253.28823,127.65983 33.53261,23.21488 -7.51539,204.39483 -14.0624,232.15845 -0.5683,2.40996 77.17509,83.04691 77.17509,83.04691 0,0 77.74339,-80.63695 77.17509,-83.04691 z"
     style="fill:#000000;stroke:none;stroke-width:3.77952756;stroke-linecap:butt;stroke-linejoin:miter;stroke-miterlimit:4;stroke-dasharray:none;stroke-opacity:1;fill-opacity:1" />
  <path
     sodipodi:nodetypes="ccccsscccccsc"
     inkscape:connector-curvature="0"
     id="path825"
     d="m -436.01576,25.125094 c 0,0 -7.61426,24.864003 -56.90756,58.903194 -269.80328,111.897632 -379.5695,327.562772 -332.0356,676.819282 -18.89023,22.80569 -23.93561,29.32848 -23.69779,60.35395 79.81858,37.18596 58.05138,168.93006 25.79967,265.82698 -0.13079,0.3929 28.50259,204.3439 284.87082,386.797 0.43027,0.3062 -31.70009,-444.8818 -12.63742,-574.3958 l -66.91474,42.32558 -135.67005,-173.91939 0.79175,-134.64838 c 128.74274,86.91768 253.28823,127.65983 253.28823,127.65983 33.53261,23.21488 -7.51539,204.39483 -14.0624,232.15845 -0.5683,2.40996 76.48481,83.04691 76.48481,83.04691"
     style="fill:none;stroke:#ff0000;stroke-width:3.77952766;stroke-linecap:butt;stroke-linejoin:miter;stroke-miterlimit:4;stroke-dasharray:none;stroke-opacity:1" />
  <path
     style="fill:none;stroke:#ff0000;stroke-width:3.77952766;stroke-linecap:butt;stroke-linejoin:miter;stroke-miterlimit:4;stroke-dasharray:none;stroke-opacity:1"
     d="m -1425.0319,25.125094 c 0,0 -7.6143,24.864003 -56.9076,58.903194 -269.8033,111.897632 -379.5695,327.562772 -332.0356,676.819282 76.605,86.72915 42.1681,202.37731 2.1019,326.18093 -0.1308,0.3929 28.5026,204.3439 284.8708,386.797 0.4303,0.3062 -31.7001,-444.8818 -12.6374,-574.3958 l -66.9148,42.32558 -135.67,-173.91939 0.7917,-134.64838 c 128.7428,86.91768 253.2883,127.65983 253.2883,127.65983 33.5326,23.21488 -7.5154,204.39483 -14.0624,232.15845 -0.5683,2.40996 76.4848,83.04691 76.4848,83.04691"
     id="path827"
     inkscape:connector-curvature="0"
     sodipodi:nodetypes="ccccscccccsc" />
  <path
     sodipodi:nodetypes="cccccccccccsc"
     inkscape:connector-curvature="0"
     id="path829"
     d="m 2437.5686,18.385337 c -61.6835,0 -88.7872,15.138003 -88.7872,15.138003 l 10.6462,35.4398 c -267.687,105.9722 -359.0639,342.62792 -311.53,691.88443 76.605,86.72915 42.1681,202.37731 2.1019,326.18093 220.6317,91.2209 284.8708,386.797 284.8708,386.797 0,0 -31.7001,-444.8818 -12.6374,-574.3958 l -66.9148,42.32558 -135.67,-173.91939 0.7917,-134.64838 c 128.7428,86.91768 253.2883,127.65983 253.2883,127.65983 33.5326,23.21488 -7.5154,204.39483 -14.0624,232.15845 -0.5683,2.40996 76.4848,83.04691 76.4848,83.04691"
     style="fill:none;stroke:#ff0000;stroke-width:3.77952766;stroke-linecap:butt;stroke-linejoin:miter;stroke-miterlimit:4;stroke-dasharray:none;stroke-opacity:1" />
  <path
     style="fill:none;stroke:#ff0000;stroke-width:3.77952766;stroke-linecap:butt;stroke-linejoin:miter;stroke-miterlimit:4;stroke-dasharray:none;stroke-opacity:1"
     d="m 2385.6371,22.866907 c 0,-79.290254 -12.3639,-282.907337 -229.5122,-409.832097 37.004,-64.47668 163.5398,-125.52219 280.4303,-125.52219"
     id="path849"
     inkscape:connector-curvature="0"
     sodipodi:nodetypes="ccc" />
  <text
     xml:space="preserve"
     style="font-style:normal;font-weight:normal;font-size:372.96017456px;line-height:1.25;font-family:sans-serif;letter-spacing:0px;word-spacing:0px;fill:#000000;fill-opacity:1;stroke:none;stroke-width:9.32400513"
     x="9568.3984"
     y="1799.1361"
     id="text1000"
     inkscape:export-filename="/home/alvaro/Desktop/AcheronProject/acheronLibrary/graphics/acheronLogoFilled.png"
     inkscape:export-xdpi="1000"
     inkscape:export-ydpi="1000"><tspan
       sodipodi:role="line"
       x="9615.0186"
       y="1799.1361"
       id="tspan1002"
       style="font-style:normal;font-variant:normal;font-weight:normal;font-stretch:normal;font-family:'Standard Symbols PS';-inkscape-font-specification:'Standard Symbols PS';text-align:center;text-anchor:middle;stroke-width:9.32400513">Acerwn </tspan></text>
  <path
     style="fill:none;stroke:#ff0000;stroke-width:3.77952766;stroke-linecap:butt;stroke-linejoin:miter;stroke-miterlimit:4;stroke-dasharray:none;stroke-opacity:1"
     d="m 4034.3475,18.385337 c -61.6835,0 -88.7872,15.138003 -88.7872,15.138003 l 10.6462,35.4398 c -267.687,105.9722 -359.0639,342.62792 -311.53,691.88443 76.605,86.72915 42.1681,202.37731 2.1019,326.18093 83.829,297.5463 284.8708,386.797 284.8708,386.797 0,0 -31.7001,-444.8818 -12.6374,-574.3958 l -66.9148,42.32558 -135.67,-173.91939 0.7917,-134.64838 c 128.7428,86.91768 253.2883,127.65983 253.2883,127.65983 33.5326,23.21488 -7.5154,204.39483 -14.0624,232.15845 -0.5683,2.40996 76.4848,83.04691 76.4848,83.04691"
     id="path957"
     inkscape:connector-curvature="0"
     sodipodi:nodetypes="cccccccccccsc" />
  <path
     sodipodi:nodetypes="ccc"
     inkscape:connector-curvature="0"
     id="path959"
     d="m 3982.416,22.866907 c 0,-79.290254 -12.3639,-282.907337 -229.5122,-409.832097 37.004,-64.47668 163.5398,-125.52219 280.4303,-125.52219"
     style="fill:none;stroke:#ff0000;stroke-width:3.77952766;stroke-linecap:butt;stroke-linejoin:miter;stroke-miterlimit:4;stroke-dasharray:none;stroke-opacity:1" />
  <path
     style="fill:none;stroke:#ff0000;stroke-width:3.77952766;stroke-linecap:butt;stroke-linejoin:miter;stroke-miterlimit:4;stroke-dasharray:none;stroke-opacity:1"
     d="m 5485.7592,22.866907 c 0,-79.290254 -12.3639,-282.907337 -229.5122,-409.832097 37.004,-64.47668 163.5398,-125.52219 281.4435,-125.52219 38.1523,0 101.2275,12.45836 113.8425,17.22403 l -17.6324,113.32525 41.0407,-105.68931 c 15.6987,3.08367 121.7539,61.56435 144.1927,100.66222 -217.1483,126.92476 -229.5122,330.541843 -229.5122,409.832097"
     id="path963"
     inkscape:connector-curvature="0"
     sodipodi:nodetypes="cccccccc" />
  <path
     style="fill:none;stroke:#ff0000;stroke-width:3.77952766;stroke-linecap:butt;stroke-linejoin:miter;stroke-miterlimit:4;stroke-dasharray:none;stroke-opacity:1"
     d="m 5537.6903,18.385337 c 61.6835,0 88.7872,15.138003 88.7872,15.138003 l -10.6462,35.4398 c 267.687,105.9722 359.0639,342.62792 311.53,691.88443 -76.605,86.72915 -42.1681,202.37731 -2.1019,326.18093 -83.829,297.5463 -284.8708,386.797 -284.8708,386.797 0,0 31.7001,-444.8818 12.6374,-574.3958 l 66.9148,42.32558 135.67,-173.91939 -0.7917,-134.64838 c -128.7428,86.91768 -253.2883,127.65983 -253.2883,127.65983 -33.5326,23.21488 7.5154,204.39483 14.0624,232.15845 0.5683,2.40996 -77.9027,83.04691 -77.9027,83.04691 0,0 -78.471,-80.63695 -77.9027,-83.04691 6.547,-27.76362 47.595,-208.94357 14.0624,-232.15845 l -151.8024,-68.01545 14.8575,-187.97662 -41.8461,173.45047 c 0,0 -46.9662,-26.53128 -74.4973,-45.11823 l -0.7917,134.64838 44.1854,57.37438 -14.19,165.85575 36.7833,-136.89272 68.8913,87.58198 66.9148,-42.32558 c -19.0627,129.514 12.6374,574.3958 12.6374,574.3958 0,0 -201.0418,-89.2507 -284.8708,-386.797 40.0662,-123.80362 74.5031,-239.45178 -2.1019,-326.18093 -47.5339,-349.25651 43.843,-585.91223 311.53,-691.88443 l -10.6462,-35.4398 c 0,0 27.1037,-15.138003 88.7872,-15.138003"
     id="path965"
     inkscape:connector-curvature="0"
     sodipodi:nodetypes="cccccccccccscsccccccccccccccccc" />
  <path
     sodipodi:nodetypes="cccccccccccscsccccccccccccccccc"
     inkscape:connector-curvature="0"
     id="path991"
     d="m 7577.373,18.385337 c 61.6835,0 88.7872,15.138003 88.7872,15.138003 l -10.6462,35.4398 c 267.687,105.9722 359.0639,342.62792 311.53,691.88443 -76.605,86.72915 -42.1681,202.37731 -2.1019,326.18093 -83.829,297.5463 -284.8708,386.797 -284.8708,386.797 0,0 31.7001,-444.8818 12.6374,-574.3958 l 66.9148,42.32558 135.67,-173.91939 -0.7917,-134.64838 c -128.7428,86.91768 -253.2883,127.65983 -253.2883,127.65983 -33.5326,23.21488 7.5154,204.39483 14.0624,232.15845 0.5683,2.40996 -77.9027,83.04691 -77.9027,83.04691 0,0 -78.471,-80.63695 -77.9027,-83.04691 6.547,-27.76362 47.595,-208.94357 14.0624,-232.15845 l -138.3464,-62.40878 1.4015,-193.58329 -49.6954,167.8438 c 0,0 -39.1169,-20.92461 -66.648,-39.51156 l -0.7917,134.64838 36.3361,47.28238 -6.3407,175.94775 45.1088,-127.77434 60.5658,78.4636 66.9148,-42.32558 c -19.0627,129.514 12.6374,574.3958 12.6374,574.3958 0,0 -201.0418,-89.2507 -284.8708,-386.797 40.0662,-123.80362 74.5031,-239.45178 -2.1019,-326.18093 -47.5339,-349.25651 43.843,-585.91223 311.53,-691.88443 l -10.6462,-35.4398 c 0,0 27.1037,-15.138003 88.7872,-15.138003"
     style="fill:none;stroke:#000000;stroke-width:11.33858299;stroke-linecap:butt;stroke-linejoin:miter;stroke-miterlimit:4;stroke-dasharray:none;stroke-opacity:1"
     inkscape:export-filename="/home/alvaro/Desktop/AcheronProject/acheronLibrary/graphics/acheronLogo.png"
     inkscape:export-xdpi="1000"
     inkscape:export-ydpi="1000" />
  <text
     id="text987"
     y="1790.3219"
     x="7576.7051"
     style="font-style:normal;font-weight:normal;font-size:334.04519653px;line-height:1.25;font-family:sans-serif;letter-spacing:0px;word-spacing:0px;fill:#000000;fill-opacity:1;stroke:none;stroke-width:8.35113049"
     xml:space="preserve"
     inkscape:export-filename="/home/alvaro/Desktop/AcheronProject/acheronLibrary/graphics/acheronLogo.png"
     inkscape:export-xdpi="1000"
     inkscape:export-ydpi="1000"><tspan
       style="font-style:normal;font-variant:normal;font-weight:normal;font-stretch:normal;font-family:'Standard Symbols PS';-inkscape-font-specification:'Standard Symbols PS';text-align:center;text-anchor:middle;stroke-width:8.35113049"
       id="tspan985"
       y="1790.3219"
       x="7618.4609"
       sodipodi:role="line">Acerwn </tspan></text>
  <path
     sodipodi:nodetypes="cccccccc"
     inkscape:connector-curvature="0"
     id="path989"
     d="m 7525.4419,22.866907 c 0,-79.290254 -12.3639,-282.907337 -229.5122,-409.832097 37.004,-64.47668 163.5398,-125.52219 281.4435,-125.52219 38.1523,0 91.6962,10.21569 104.3112,14.98136 l -11.4651,129.02392 58.4214,-111.29598 c 15.6987,3.08367 107.7372,53.71502 130.176,92.81289 -217.1483,126.92476 -229.5122,330.541843 -229.5122,409.832097"
     style="fill:none;stroke:#000000;stroke-width:11.33858299;stroke-linecap:butt;stroke-linejoin:miter;stroke-miterlimit:4;stroke-dasharray:none;stroke-opacity:1"
     inkscape:export-filename="/home/alvaro/Desktop/AcheronProject/acheronLibrary/graphics/acheronLogo.png"
     inkscape:export-xdpi="1000"
     inkscape:export-ydpi="1000" />
  <path
     style="fill:#000000;stroke:#000000;stroke-width:11.33858299;stroke-linecap:butt;stroke-linejoin:miter;stroke-miterlimit:4;stroke-dasharray:none;stroke-opacity:1;fill-opacity:1"
     d="m 9569.1442,18.385337 c 61.6835,0 88.7872,15.138003 88.7872,15.138003 l -10.6462,35.4398 c 267.687,105.9722 359.0638,342.62792 311.53,691.88443 -76.605,86.72915 -42.1681,202.37731 -2.1019,326.18093 -83.829,297.5463 -284.8708,386.797 -284.8708,386.797 0,0 31.7001,-444.8818 12.6374,-574.3958 l 66.9148,42.32558 135.67,-173.91939 -0.7917,-134.64838 c -128.7428,86.91768 -253.2883,127.65983 -253.2883,127.65983 -33.5326,23.21488 7.5154,204.39483 14.0624,232.15845 0.5683,2.40996 -77.9027,83.04691 -77.9027,83.04691 0,0 -78.471,-80.63695 -77.9027,-83.04691 6.547,-27.76362 47.595,-208.94357 14.0624,-232.15845 l -138.3464,-62.40878 1.4015,-193.58329 -49.6954,167.8438 c 0,0 -39.1169,-20.92461 -66.648,-39.51156 l -0.7917,134.64838 36.3361,47.28238 -6.3407,175.94775 45.1088,-127.77434 60.5658,78.4636 66.9148,-42.32558 c -19.0627,129.514 12.6374,574.3958 12.6374,574.3958 0,0 -201.0418,-89.2507 -284.8708,-386.797 40.0662,-123.80362 74.5031,-239.45178 -2.1019,-326.18093 -47.5339,-349.25651 43.843,-585.91223 311.53,-691.88443 l -10.6462,-35.4398 c 0,0 27.1037,-15.138003 88.7872,-15.138003"
     id="path995"
     inkscape:connector-curvature="0"
     sodipodi:nodetypes="cccccccccccscsccccccccccccccccc"
     inkscape:export-filename="/home/alvaro/Desktop/AcheronProject/acheronLibrary/graphics/acheronLogoFilled.png"
     inkscape:export-xdpi="1000"
     inkscape:export-ydpi="1000" />
  <path
     style="fill:#000000;stroke:#000000;stroke-width:11.33858299;stroke-linecap:butt;stroke-linejoin:miter;stroke-miterlimit:4;stroke-dasharray:none;stroke-opacity:1;fill-opacity:1"
     d="m 9517.2131,22.866907 c 0,-79.290254 -12.3639,-282.907337 -229.5122,-409.832097 37.004,-64.47668 163.5398,-125.52219 281.4435,-125.52219 38.1523,0 91.6962,10.21569 104.3112,14.98136 l -11.4651,129.02392 58.4214,-111.29598 c 15.6987,3.08367 107.7372,53.71502 130.176,92.81289 -217.1483,126.92476 -229.5122,330.541843 -229.5122,409.832097"
     id="path997"
     inkscape:connector-curvature="0"
     sodipodi:nodetypes="cccccccc"
     inkscape:export-filename="/home/alvaro/Desktop/AcheronProject/acheronLibrary/graphics/acheronLogoFilled.png"
     inkscape:export-xdpi="1000"
     inkscape:export-ydpi="1000" />
</svg>
