<?xml version="1.0" encoding="UTF-8" standalone="no"?>
<!-- Created with Inkscape (http://www.inkscape.org/) -->

<svg
   xmlns:dc="http://purl.org/dc/elements/1.1/"
   xmlns:cc="http://creativecommons.org/ns#"
   xmlns:rdf="http://www.w3.org/1999/02/22-rdf-syntax-ns#"
   xmlns:svg="http://www.w3.org/2000/svg"
   xmlns="http://www.w3.org/2000/svg"
   xmlns:sodipodi="http://sodipodi.sourceforge.net/DTD/sodipodi-0.dtd"
   xmlns:inkscape="http://www.inkscape.org/namespaces/inkscape"
   width="210mm"
   height="297mm"
   viewBox="0 0 210 297"
   version="1.1"
   id="svg8"
   inkscape:version="0.92.4 5da689c313, 2019-01-14"
   sodipodi:docname="austinLogoMask.svg">
  <defs
     id="defs2" />
  <sodipodi:namedview
     id="base"
     pagecolor="#ffffff"
     bordercolor="#666666"
     borderopacity="1.0"
     inkscape:pageopacity="0.0"
     inkscape:pageshadow="2"
     inkscape:zoom="0.98994949"
     inkscape:cx="339.36513"
     inkscape:cy="1707.7119"
     inkscape:document-units="mm"
     inkscape:current-layer="flowRoot829"
     showgrid="false"
     inkscape:window-width="1920"
     inkscape:window-height="1052"
     inkscape:window-x="1920"
     inkscape:window-y="200"
     inkscape:window-maximized="1" />
  <metadata
     id="metadata5">
    <rdf:RDF>
      <cc:Work
         rdf:about="">
        <dc:format>image/svg+xml</dc:format>
        <dc:type
           rdf:resource="http://purl.org/dc/dcmitype/StillImage" />
        <dc:title></dc:title>
      </cc:Work>
    </rdf:RDF>
  </metadata>
  <g
     inkscape:label="Layer 1"
     inkscape:groupmode="layer"
     id="layer1">
    <g
       aria-label="Austin"
       transform="matrix(0.82820292,0,0,0.82820292,170.11547,-228.2149)"
       style="font-style:normal;font-weight:normal;font-size:40px;line-height:1.25;font-family:sans-serif;letter-spacing:0px;word-spacing:0px;fill:#000000;fill-opacity:1;stroke:none"
       id="flowRoot829">
      <g
         id="g901">
        <path
           d="m -139.21227,162.41612 c 0.53333,0 0.98667,0.18667 1.36,0.56 0.4,0.34667 0.61333,0.78667 0.64,1.32 0.0533,0.53333 -0.08,1.01333 -0.4,1.44 l -19.64,25.76 c 0.4,0.13333 0.72,0.38667 0.96,0.76 0.26667,0.34667 0.4,0.73333 0.4,1.16 0,0.58667 -0.2,1.08 -0.6,1.48 -0.4,0.4 -0.88,0.6 -1.44,0.6 h -2.4 l -19.44,25.52 c -0.42667,0.53333 -0.98667,0.8 -1.68,0.8 -0.45333,0 -0.86667,-0.13333 -1.24,-0.4 -0.45333,-0.34667 -0.72,-0.81333 -0.8,-1.4 -0.08,-0.56 0.0533,-1.06667 0.4,-1.52 l 17.52,-22.96 h -9.4 l -21.04,16.6 c -0.4,0.29333 -0.84,0.44 -1.32,0.44 -0.42667,0 -0.82667,-0.12 -1.2,-0.36 -0.53333,-0.4 -0.82667,-0.94667 -0.88,-1.64 0,-0.50667 0.12,-0.93333 0.36,-1.28 0.26667,-0.34667 0.81333,-0.86667 1.64,-1.56 15.72,-12.2 9.25406,-7.06643 15.72,-12.2 l -44.76,0.08 h -0.24 c -0.53333,-0.0533 -0.98667,-0.29333 -1.36,-0.72 -0.34667,-0.42667 -0.50667,-0.90667 -0.48,-1.44 0.0267,-0.56 0.24,-1.02667 0.64,-1.4 0.4,-0.4 0.88,-0.6 1.44,-0.6 h 0.28 c 49.76,-0.08 32.23205,-0.0435 49.76,-0.08 11.41188,-9.32626 25.46923,-19.74299 35.84,-28.48 0.4,-0.34667 0.85333,-0.50667 1.36,-0.48 z m -30.52,28.96 h 7.36 l 11.04,-14.48 z"
           style="font-style:normal;font-variant:normal;font-weight:normal;font-stretch:normal;font-family:Hendangan;-inkscape-font-specification:Hendangan"
           id="path852"
           inkscape:connector-curvature="0"
           sodipodi:nodetypes="ccccccsssccsccccccsccccccccccscccccccc" />
        <path
           d="m -142.50946,197.85828 c 0.48,-0.08 0.90667,0.0267 1.28,0.32 0.4,0.29333 0.64,0.68 0.72,1.16 0.08,0.48 -0.0267,0.92 -0.32,1.32 0,0 -0.23729,0.44938 -1.07338,0.93762 -0.83609,0.48823 -1.49683,0.50022 -1.65683,0.50022 -1.06667,0 -2,-0.34667 -2.8,-1.04 -0.56,-0.48 -0.86667,-1.12 -0.92,-1.92 -0.0267,-0.08 -0.04,-0.14667 -0.04,-0.2 -2.69333,2.05333 -4.86667,3.09333 -6.52,3.12 -1.12,0.0267 -2.02667,-0.34667 -2.72,-1.12 -1.2,-1.36 -1.05333,-3.16 0.44,-5.4 0.64,-0.96 1.94667,-2.48 3.92,-4.56 2.05333,-2.18667 3.32,-3.69333 3.8,-4.52 0.24,-0.42667 0.58667,-0.70667 1.04,-0.84 0.48,-0.13333 0.92,-0.08 1.32,0.16 0.42667,0.24 0.70667,0.6 0.84,1.08 0.13333,0.48 0.08,0.92 -0.16,1.32 -0.61333,1.09333 -2.04,2.82667 -4.28,5.2 -2.50667,2.66667 -3.88,4.38667 -4.12,5.16 1.33333,-0.16 3.54667,-1.58667 6.64,-4.28 2.21333,-1.89333 4.37333,-4.01333 6.48,-6.36 0.48,-0.56 0.97333,-1.14667 1.48,-1.76 0.32,-0.34667 0.72,-0.53333 1.2,-0.56 0.48,-0.0533 0.90667,0.08 1.28,0.4 0.37333,0.32 0.57333,0.72 0.6,1.2 0.0533,0.45333 -0.08,0.86667 -0.4,1.24 -0.42667,0.53333 -0.92,1.12 -1.48,1.76 -3.38667,4 -5.30667,6.8 -5.76,8.4 h 0.28 c 0.50667,-0.08 1.12,-0.34667 1.84,-0.8 0.72,-0.48 -3.69805,2.49851 -2.60472,1.35184 1.12,-1.14667 -0.69174,1.06365 0.53493,-0.58968 0.29333,-0.37333 0.68,-0.6 1.16,-0.68 z"
           style="font-style:normal;font-variant:normal;font-weight:normal;font-stretch:normal;font-family:Hendangan;-inkscape-font-specification:Hendangan"
           id="path854"
           inkscape:connector-curvature="0"
           sodipodi:nodetypes="scsczscccccsccccscccccccsccccccccs" />
        <path
           d="m -120.60487,186.49612 q 0.28,0.8 -0.08,1.48 -0.36,0.64 -1.24,1.56 -1.88,1.96 -1.88,2.72 0.04,0.72 -0.48,1.24 -0.48,0.52 -1.2,0.56 -0.72,0.04 -1.28,-0.44 -0.52,-0.52 -0.52,-1.28 -0.04,-1.72 1.44,-3.68 -1.8,0.28 -3.28,1.04 -1.48,0.72 -2,1.72 0.28,0.52 1.48,2.04 1.36,1.76 1.84,2.6 1.32,2.44 -0.24,3.84 -2.28,2.04 -6.08,2.04 -1.64,0 -2.92,-0.44 -2.52,-0.84 -2.92,-2.84 -0.44,-2.12 1.88,-4.2 0.56,-0.48 1.28,-0.44 0.72,0.04 1.24,0.6 0.48,0.52 0.44,1.28 -0.04,0.72 -0.6,1.2 -0.56,0.48 -0.72,0.84 0.56,0.36 1.72,0.44 2.2,0.2 3.76,-0.72 -0.32,-0.6 -1.48,-2 -0.96,-1.24 -1.4,-1.84 -0.4,-0.64 -0.68,-1.52 -0.32,-0.92 -0.08,-1.64 0.48,-1.44 1.64,-2.56 1.16,-1.12 2.56,-1.72 1.44,-0.6 3.04,-1 1.6,-0.4 2.92,-0.36 1.32,0 2.32,0.12 1.2,0.24 1.52,1.36 z"
           style="font-style:normal;font-variant:normal;font-weight:normal;font-stretch:normal;font-family:Hendangan;-inkscape-font-specification:Hendangan"
           id="path856"
           inkscape:connector-curvature="0" />
        <path
           d="m -111.6205,184.45612 q -2,2.6 -3.68,4.96 -4.76,6.76 -5.52,9.52 3.32,0.24 9.6,-8 0.44,-0.56 1.16,-0.64 0.72,-0.12 1.28,0.32 0.6,0.44 0.68,1.16 0.12,0.72 -0.32,1.32 -1.52,2 -2.84,3.52 -1.32,1.48 -2.92,2.92 -1.6,1.4 -3.24,2.16 -1.6,0.76 -3.16,0.8 -1.08,0 -2.12,-0.4 -1.28,-0.48 -1.64,-1.88 -0.32,-1.4 0.84,-4.12 1.16,-2.76 5.12,-8.44 1.08,-1.48 2.32,-3.16 h -0.28 q -0.72,0 -1.24,-0.48 -0.52,-0.52 -0.56,-1.24 0,-0.76 0.52,-1.28 0.52,-0.52 1.24,-0.52 l 3,-0.04 q 1.72,-2.12 2.2,-2.64 0.52,-0.56 1.24,-0.6 0.72,-0.04 1.24,0.48 0.56,0.48 0.56,1.24 0.04,0.72 -0.44,1.24 -0.08,0.08 -0.24,0.24 h 0.6 q 0.72,0 1.24,0.52 0.52,0.52 0.52,1.24 0,0.72 -0.52,1.24 -0.48,0.52 -1.2,0.52 z"
           style="font-style:normal;font-variant:normal;font-weight:normal;font-stretch:normal;font-family:Hendangan;-inkscape-font-specification:Hendangan"
           id="path858"
           inkscape:connector-curvature="0" />
        <path
           d="m -100.83669,190.29612 q 0.72,-0.12 1.319996,0.32 0.6,0.4 0.68,1.12 0.12,0.72 -0.28,1.32 -6.839996,9.4 -12.239996,9.4 -1.08,0 -2.08,-0.36 -1.52,-0.56 -1.92,-2.08 -0.52,-1.96 1.24,-4.92 1.72,-2.96 5.72,-7.68 0.56,-0.68 0.72,-0.88 0.48,-0.56 1.2,-0.64 0.72,-0.08 1.28,0.4 0.56,0.44 0.64,1.2 0.08,0.72 -0.36,1.28 -0.16,0.2 -0.76,0.92 -2.76,3.24 -4.16,5.24 -1.84,2.68 -2.08,3.92 1.72,0.4 4.32,-1.68 2.64,-2.08 5.6,-6.2 0.44,-0.6 1.16,-0.68 z m -3.68,-5.24 q -1.52,-1.16 0.08,-3.24 0.28,-0.4 0.6,-0.64 0.64,-0.6 1.36,-0.6 0.76,-0.04 1.12,0.36 1.519996,1.16 -0.08,3.24 -0.28,0.4 -0.6,0.64 -0.64,0.6 -1.4,0.6 -0.6,0 -1.08,-0.36 z"
           style="font-style:normal;font-variant:normal;font-weight:normal;font-stretch:normal;font-family:Hendangan;-inkscape-font-specification:Hendangan"
           id="path860"
           inkscape:connector-curvature="0" />
        <path
           d="m -81.695046,190.25612 q 0.76,-0.08 1.32,0.4 0.56,0.44 0.64,1.16 0.08,0.72 -0.36,1.32 -3.44,4.32 -8.68,7.12 -5.24,2.76 -7.24,1.52 -0.720004,-0.44 -0.880004,-1.32 -0.16,-0.92 0.600004,-2.16 0.76,-1.24 3.48,-4.68 1.88,-2.36 2.72,-3.52 -3.44,1.28 -7.760008,4.56 -4.279986,3.24 -7.639986,6.96 -0.52,0.6 -1.32,0.6 -0.6,0 -1.08,-0.4 -0.56,-0.44 -0.64,-1.12 -0.12,-0.68 0.28,-1.24 3.52,-5.12 10.279986,-13.72 0.44,-0.56 1.160004,-0.64 0.720004,-0.12 1.280004,0.36 0.6,0.44 0.68,1.16 0.12,0.72 -0.36,1.28 -0.32,0.44 -1.08,1.4 5.12,-3.16 8.76,-3.36 1.48,-0.08 2.08,1.12 0.64,1.2 -0.32,2.88 -0.92,1.64 -4.28,5.88 -0.96,1.2 -1.48,1.88 2.2,-1.04 4.52,-2.76 2.36,-1.72 4.16,-4 0.44,-0.6 1.16,-0.68 z"
           style="font-style:normal;font-variant:normal;font-weight:normal;font-stretch:normal;font-family:Hendangan;-inkscape-font-specification:Hendangan"
           id="path862"
           inkscape:connector-curvature="0" />
      </g>
      <rect
         style="fill:#ffffeb;fill-opacity:1;stroke:#ffffff;stroke-width:3.21868753;stroke-linecap:round;stroke-linejoin:round;stroke-miterlimit:4;stroke-dasharray:none;stroke-dashoffset:0;stroke-opacity:1;paint-order:normal"
         id="rect848"
         width="340.6618"
         height="144.09306"
         x="-322.16412"
         y="-3.1113532" />
      <g
         id="g846"
         transform="matrix(0.40753202,0,0,0.40753202,-91.316452,-10.313887)"
         inkscape:export-xdpi="10000"
         inkscape:export-ydpi="10000">
        <path
           sodipodi:nodetypes="ccccccsssccsccccccsccccccccccscccccccc"
           inkscape:connector-curvature="0"
           id="path834"
           style="font-style:normal;font-variant:normal;font-weight:normal;font-stretch:normal;font-family:Hendangan;-inkscape-font-specification:Hendangan"
           d="m -139.21227,162.41612 c 0.53333,0 0.98667,0.18667 1.36,0.56 0.4,0.34667 0.61333,0.78667 0.64,1.32 0.0533,0.53333 -0.08,1.01333 -0.4,1.44 l -19.64,25.76 c 0.4,0.13333 0.72,0.38667 0.96,0.76 0.26667,0.34667 0.4,0.73333 0.4,1.16 0,0.58667 -0.2,1.08 -0.6,1.48 -0.4,0.4 -0.88,0.6 -1.44,0.6 h -2.4 l -19.44,25.52 c -0.42667,0.53333 -0.98667,0.8 -1.68,0.8 -0.45333,0 -0.86667,-0.13333 -1.24,-0.4 -0.45333,-0.34667 -0.72,-0.81333 -0.8,-1.4 -0.08,-0.56 0.0533,-1.06667 0.4,-1.52 l 17.52,-22.96 h -9.4 l -21.04,16.6 c -0.4,0.29333 -0.84,0.44 -1.32,0.44 -0.42667,0 -0.82667,-0.12 -1.2,-0.36 -0.53333,-0.4 -0.82667,-0.94667 -0.88,-1.64 0,-0.50667 0.12,-0.93333 0.36,-1.28 0.26667,-0.34667 0.81333,-0.86667 1.64,-1.56 15.72,-12.2 9.25406,-7.06643 15.72,-12.2 l -44.76,0.08 h -0.24 c -0.53333,-0.0533 -0.98667,-0.29333 -1.36,-0.72 -0.34667,-0.42667 -0.50667,-0.90667 -0.48,-1.44 0.0267,-0.56 0.24,-1.02667 0.64,-1.4 0.4,-0.4 0.88,-0.6 1.44,-0.6 h 0.28 c 49.76,-0.08 32.23205,-0.0435 49.76,-0.08 11.41188,-9.32626 25.46923,-19.74299 35.84,-28.48 0.4,-0.34667 0.85333,-0.50667 1.36,-0.48 z m -30.52,28.96 h 7.36 l 11.04,-14.48 z" />
        <path
           sodipodi:nodetypes="scsczscccccsccccscccccccsccccccccs"
           inkscape:connector-curvature="0"
           id="path836"
           style="font-style:normal;font-variant:normal;font-weight:normal;font-stretch:normal;font-family:Hendangan;-inkscape-font-specification:Hendangan"
           d="m -142.50946,197.85828 c 0.48,-0.08 0.90667,0.0267 1.28,0.32 0.4,0.29333 0.64,0.68 0.72,1.16 0.08,0.48 -0.0267,0.92 -0.32,1.32 0,0 -0.23729,0.44938 -1.07338,0.93762 -0.83609,0.48823 -1.49683,0.50022 -1.65683,0.50022 -1.06667,0 -2,-0.34667 -2.8,-1.04 -0.56,-0.48 -0.86667,-1.12 -0.92,-1.92 -0.0267,-0.08 -0.04,-0.14667 -0.04,-0.2 -2.69333,2.05333 -4.86667,3.09333 -6.52,3.12 -1.12,0.0267 -2.02667,-0.34667 -2.72,-1.12 -1.2,-1.36 -1.05333,-3.16 0.44,-5.4 0.64,-0.96 1.94667,-2.48 3.92,-4.56 2.05333,-2.18667 3.32,-3.69333 3.8,-4.52 0.24,-0.42667 0.58667,-0.70667 1.04,-0.84 0.48,-0.13333 0.92,-0.08 1.32,0.16 0.42667,0.24 0.70667,0.6 0.84,1.08 0.13333,0.48 0.08,0.92 -0.16,1.32 -0.61333,1.09333 -2.04,2.82667 -4.28,5.2 -2.50667,2.66667 -3.88,4.38667 -4.12,5.16 1.33333,-0.16 3.54667,-1.58667 6.64,-4.28 2.21333,-1.89333 4.37333,-4.01333 6.48,-6.36 0.48,-0.56 0.97333,-1.14667 1.48,-1.76 0.32,-0.34667 0.72,-0.53333 1.2,-0.56 0.48,-0.0533 0.90667,0.08 1.28,0.4 0.37333,0.32 0.57333,0.72 0.6,1.2 0.0533,0.45333 -0.08,0.86667 -0.4,1.24 -0.42667,0.53333 -0.92,1.12 -1.48,1.76 -3.38667,4 -5.30667,6.8 -5.76,8.4 h 0.28 c 0.50667,-0.08 1.12,-0.34667 1.84,-0.8 0.72,-0.48 -3.69805,2.49851 -2.60472,1.35184 1.12,-1.14667 -0.69174,1.06365 0.53493,-0.58968 0.29333,-0.37333 0.68,-0.6 1.16,-0.68 z" />
        <path
           inkscape:connector-curvature="0"
           id="path838"
           style="font-style:normal;font-variant:normal;font-weight:normal;font-stretch:normal;font-family:Hendangan;-inkscape-font-specification:Hendangan"
           d="m -120.60487,186.49612 q 0.28,0.8 -0.08,1.48 -0.36,0.64 -1.24,1.56 -1.88,1.96 -1.88,2.72 0.04,0.72 -0.48,1.24 -0.48,0.52 -1.2,0.56 -0.72,0.04 -1.28,-0.44 -0.52,-0.52 -0.52,-1.28 -0.04,-1.72 1.44,-3.68 -1.8,0.28 -3.28,1.04 -1.48,0.72 -2,1.72 0.28,0.52 1.48,2.04 1.36,1.76 1.84,2.6 1.32,2.44 -0.24,3.84 -2.28,2.04 -6.08,2.04 -1.64,0 -2.92,-0.44 -2.52,-0.84 -2.92,-2.84 -0.44,-2.12 1.88,-4.2 0.56,-0.48 1.28,-0.44 0.72,0.04 1.24,0.6 0.48,0.52 0.44,1.28 -0.04,0.72 -0.6,1.2 -0.56,0.48 -0.72,0.84 0.56,0.36 1.72,0.44 2.2,0.2 3.76,-0.72 -0.32,-0.6 -1.48,-2 -0.96,-1.24 -1.4,-1.84 -0.4,-0.64 -0.68,-1.52 -0.32,-0.92 -0.08,-1.64 0.48,-1.44 1.64,-2.56 1.16,-1.12 2.56,-1.72 1.44,-0.6 3.04,-1 1.6,-0.4 2.92,-0.36 1.32,0 2.32,0.12 1.2,0.24 1.52,1.36 z" />
        <path
           inkscape:connector-curvature="0"
           id="path840"
           style="font-style:normal;font-variant:normal;font-weight:normal;font-stretch:normal;font-family:Hendangan;-inkscape-font-specification:Hendangan"
           d="m -111.6205,184.45612 q -2,2.6 -3.68,4.96 -4.76,6.76 -5.52,9.52 3.32,0.24 9.6,-8 0.44,-0.56 1.16,-0.64 0.72,-0.12 1.28,0.32 0.6,0.44 0.68,1.16 0.12,0.72 -0.32,1.32 -1.52,2 -2.84,3.52 -1.32,1.48 -2.92,2.92 -1.6,1.4 -3.24,2.16 -1.6,0.76 -3.16,0.8 -1.08,0 -2.12,-0.4 -1.28,-0.48 -1.64,-1.88 -0.32,-1.4 0.84,-4.12 1.16,-2.76 5.12,-8.44 1.08,-1.48 2.32,-3.16 h -0.28 q -0.72,0 -1.24,-0.48 -0.52,-0.52 -0.56,-1.24 0,-0.76 0.52,-1.28 0.52,-0.52 1.24,-0.52 l 3,-0.04 q 1.72,-2.12 2.2,-2.64 0.52,-0.56 1.24,-0.6 0.72,-0.04 1.24,0.48 0.56,0.48 0.56,1.24 0.04,0.72 -0.44,1.24 -0.08,0.08 -0.24,0.24 h 0.6 q 0.72,0 1.24,0.52 0.52,0.52 0.52,1.24 0,0.72 -0.52,1.24 -0.48,0.52 -1.2,0.52 z" />
        <path
           inkscape:connector-curvature="0"
           id="path842"
           style="font-style:normal;font-variant:normal;font-weight:normal;font-stretch:normal;font-family:Hendangan;-inkscape-font-specification:Hendangan"
           d="m -100.83669,190.29612 q 0.72,-0.12 1.319996,0.32 0.6,0.4 0.68,1.12 0.12,0.72 -0.28,1.32 -6.839996,9.4 -12.239996,9.4 -1.08,0 -2.08,-0.36 -1.52,-0.56 -1.92,-2.08 -0.52,-1.96 1.24,-4.92 1.72,-2.96 5.72,-7.68 0.56,-0.68 0.72,-0.88 0.48,-0.56 1.2,-0.64 0.72,-0.08 1.28,0.4 0.56,0.44 0.64,1.2 0.08,0.72 -0.36,1.28 -0.16,0.2 -0.76,0.92 -2.76,3.24 -4.16,5.24 -1.84,2.68 -2.08,3.92 1.72,0.4 4.32,-1.68 2.64,-2.08 5.6,-6.2 0.44,-0.6 1.16,-0.68 z m -3.68,-5.24 q -1.52,-1.16 0.08,-3.24 0.28,-0.4 0.6,-0.64 0.64,-0.6 1.36,-0.6 0.76,-0.04 1.12,0.36 1.519996,1.16 -0.08,3.24 -0.28,0.4 -0.6,0.64 -0.64,0.6 -1.4,0.6 -0.6,0 -1.08,-0.36 z" />
        <path
           inkscape:connector-curvature="0"
           id="path844"
           style="font-style:normal;font-variant:normal;font-weight:normal;font-stretch:normal;font-family:Hendangan;-inkscape-font-specification:Hendangan"
           d="m -81.695046,190.25612 q 0.76,-0.08 1.32,0.4 0.56,0.44 0.64,1.16 0.08,0.72 -0.36,1.32 -3.44,4.32 -8.68,7.12 -5.24,2.76 -7.24,1.52 -0.720004,-0.44 -0.880004,-1.32 -0.16,-0.92 0.600004,-2.16 0.76,-1.24 3.48,-4.68 1.88,-2.36 2.72,-3.52 -3.44,1.28 -7.760008,4.56 -4.279986,3.24 -7.639986,6.96 -0.52,0.6 -1.32,0.6 -0.6,0 -1.08,-0.4 -0.56,-0.44 -0.64,-1.12 -0.12,-0.68 0.28,-1.24 3.52,-5.12 10.279986,-13.72 0.44,-0.56 1.160004,-0.64 0.720004,-0.12 1.280004,0.36 0.6,0.44 0.68,1.16 0.12,0.72 -0.36,1.28 -0.32,0.44 -1.08,1.4 5.12,-3.16 8.76,-3.36 1.48,-0.08 2.08,1.12 0.64,1.2 -0.32,2.88 -0.92,1.64 -4.28,5.88 -0.96,1.2 -1.48,1.88 2.2,-1.04 4.52,-2.76 2.36,-1.72 4.16,-4 0.44,-0.6 1.16,-0.68 z" />
      </g>
    </g>
  </g>
</svg>
