<?xml version="1.0" encoding="UTF-8" standalone="no"?>
<svg
   xmlns:dc="http://purl.org/dc/elements/1.1/"
   xmlns:cc="http://creativecommons.org/ns#"
   xmlns:rdf="http://www.w3.org/1999/02/22-rdf-syntax-ns#"
   xmlns:svg="http://www.w3.org/2000/svg"
   xmlns="http://www.w3.org/2000/svg"
   xmlns:sodipodi="http://sodipodi.sourceforge.net/DTD/sodipodi-0.dtd"
   xmlns:inkscape="http://www.inkscape.org/namespaces/inkscape"
   id="Layer_1"
   data-name="Layer 1"
   viewBox="0 0 2594.78 1641.16"
   version="1.1"
   sodipodi:docname="driftmechanics_Logo.svg"
   inkscape:version="0.92.4 5da689c313, 2019-01-14">
  <metadata
     id="metadata13">
    <rdf:RDF>
      <cc:Work
         rdf:about="">
        <dc:format>image/svg+xml</dc:format>
        <dc:type
           rdf:resource="http://purl.org/dc/dcmitype/StillImage" />
      </cc:Work>
    </rdf:RDF>
  </metadata>
  <defs
     id="defs11" />
  <sodipodi:namedview
     pagecolor="#ffffff"
     bordercolor="#666666"
     borderopacity="1"
     objecttolerance="10"
     gridtolerance="10"
     guidetolerance="10"
     inkscape:pageopacity="0"
     inkscape:pageshadow="2"
     inkscape:window-width="1920"
     inkscape:window-height="1052"
     id="namedview9"
     showgrid="false"
     inkscape:zoom="2.9597885"
     inkscape:cx="235.15482"
     inkscape:cy="214.89717"
     inkscape:window-x="0"
     inkscape:window-y="200"
     inkscape:window-maximized="1"
     inkscape:current-layer="Layer_1" />
  <title
     id="title2">driftmechanics</title>
  <rect
     style="fill:#ffffff;fill-opacity:1;stroke:#040000;stroke-width:3.77952766;stroke-linecap:round;stroke-linejoin:round;stroke-miterlimit:4;stroke-dasharray:none;stroke-dashoffset:0;stroke-opacity:1;paint-order:normal"
     id="rect4533"
     width="143.9292"
     height="90.547012"
     x="162.84947"
     y="1347.558" />
  <g
     id="g4525"
     transform="matrix(0.04282081,0,0,0.04282081,185.83635,1457.8104)">
    <path
       id="path4"
       d="m 1288.61,323.46 c 145.06,0.22 272.21,55.93 362.67,147.82 a 10.24,10.24 0 0 0 13.87,0.76 L 1806.77,354.5 a 10.26,10.26 0 0 0 1,-14.91 c -130.42,-137.82 -316.45,-220.51 -525.9,-221 -346.89,-0.83 -693.78,-0.23 -1040.67,-0.19 -45.69,0 -47,1.29 -47,46.37 q -0.1,328.26 0,656.51 0,47.31 0,94.61 0,282.38 0.06,564.77 c 0,46.22 3.34,41.58 66,42.14 24.65,0.22 49.3,0.35 73.95,0.06 70.75,-0.85 71.1,5.66 71.11,-51.55 q 0,-550.44 0.05,-1100.87 c 0,-45.89 1.14,-47 46.26,-47 q 418.42,-0.13 836.98,0.02 z"
       inkscape:connector-curvature="0" />
    <path
       id="path6"
       d="m 2400.59,157.86 c 0,-36.53 -2.78,-39.15 -39.24,-39.34 -45.86,-0.25 -91.72,0.13 -137.58,-0.16 -16.79,-0.11 -31.9,3.12 -45.35,14.11 -37.94,31 -829.26,685.2 -895.66,741 -20.5,17.24 -34,15.58 -53.64,-0.73 C 1096,762.43 961.63,653.49 828.39,543.24 c -20.37,-16.86 -41,-25.64 -67.57,-24.6 -38.17,1.5 -76.44,0.31 -114.66,0.4 a 46.93,46.93 0 0 0 -46.68,47 q -0.11,454.22 -0.06,908.45 c 0,46.65 1.61,48.24 48.49,48.25 q 326.82,0.06 653.64,-0.06 c 35.37,0 70.54,-1.44 105.68,-6.92 C 1791,1455.81 2058.61,1080 1988.44,699 q -3.2,-17.32 -7.18,-34.27 a 10.26,10.26 0 0 0 -16.54,-5.57 L 1796.9,798.43 a 10.2,10.2 0 0 0 -3.67,8.29 c 0.37,9 0.54,18 0.46,27.17 -2.26,258.51 -224.36,480.67 -483.32,482.25 -155.76,0.95 -311.53,0.26 -467.29,0.16 -39.78,0 -42.06,-2.25 -42.1,-42.37 q -0.21,-223.62 0.1,-447.23 c 0,-10.08 -4.45,-23.62 5.82,-29.25 11.32,-6.2 18.36,6.94 25.92,13.16 q 197,162 393.36,324.93 c 20.52,17.1 34.65,21.53 58,1.85 133.57,-112.81 860.17,-706.2 874.31,-717.8 7.16,-5.87 14.41,-16.64 24,-12.69 11.94,4.91 6.89,18.52 6.92,28.31 q 0.51,194.91 0.23,389.82 0,328.18 0.08,656.38 c 0,43.54 3.57,41.12 57.74,41.31 q 48.6,0.16 97.23,0 c 54.17,-0.11 56,1.1 56,-46.37 q 0.11,-328.2 0,-656.39 -0.03,-331.03 -0.1,-662.1 z"
       inkscape:connector-curvature="0" />
  </g>
  <g
     transform="matrix(0.04282081,0,0,0.04282081,180.43056,1357.9806)"
     id="g4531"
     inkscape:export-xdpi="10000"
     inkscape:export-ydpi="10000">
    <path
       inkscape:connector-curvature="0"
       d="m 1288.61,323.46 c 145.06,0.22 272.21,55.93 362.67,147.82 a 10.24,10.24 0 0 0 13.87,0.76 L 1806.77,354.5 a 10.26,10.26 0 0 0 1,-14.91 c -130.42,-137.82 -316.45,-220.51 -525.9,-221 -346.89,-0.83 -693.78,-0.23 -1040.67,-0.19 -45.69,0 -47,1.29 -47,46.37 q -0.1,328.26 0,656.51 0,47.31 0,94.61 0,282.38 0.06,564.77 c 0,46.22 3.34,41.58 66,42.14 24.65,0.22 49.3,0.35 73.95,0.06 70.75,-0.85 71.1,5.66 71.11,-51.55 q 0,-550.44 0.05,-1100.87 c 0,-45.89 1.14,-47 46.26,-47 q 418.42,-0.13 836.98,0.02 z"
       id="path4527" />
    <path
       inkscape:connector-curvature="0"
       d="m 2400.59,157.86 c 0,-36.53 -2.78,-39.15 -39.24,-39.34 -45.86,-0.25 -91.72,0.13 -137.58,-0.16 -16.79,-0.11 -31.9,3.12 -45.35,14.11 -37.94,31 -829.26,685.2 -895.66,741 -20.5,17.24 -34,15.58 -53.64,-0.73 C 1096,762.43 961.63,653.49 828.39,543.24 c -20.37,-16.86 -41,-25.64 -67.57,-24.6 -38.17,1.5 -76.44,0.31 -114.66,0.4 a 46.93,46.93 0 0 0 -46.68,47 q -0.11,454.22 -0.06,908.45 c 0,46.65 1.61,48.24 48.49,48.25 q 326.82,0.06 653.64,-0.06 c 35.37,0 70.54,-1.44 105.68,-6.92 C 1791,1455.81 2058.61,1080 1988.44,699 q -3.2,-17.32 -7.18,-34.27 a 10.26,10.26 0 0 0 -16.54,-5.57 L 1796.9,798.43 a 10.2,10.2 0 0 0 -3.67,8.29 c 0.37,9 0.54,18 0.46,27.17 -2.26,258.51 -224.36,480.67 -483.32,482.25 -155.76,0.95 -311.53,0.26 -467.29,0.16 -39.78,0 -42.06,-2.25 -42.1,-42.37 q -0.21,-223.62 0.1,-447.23 c 0,-10.08 -4.45,-23.62 5.82,-29.25 11.32,-6.2 18.36,6.94 25.92,13.16 q 197,162 393.36,324.93 c 20.52,17.1 34.65,21.53 58,1.85 133.57,-112.81 860.17,-706.2 874.31,-717.8 7.16,-5.87 14.41,-16.64 24,-12.69 11.94,4.91 6.89,18.52 6.92,28.31 q 0.51,194.91 0.23,389.82 0,328.18 0.08,656.38 c 0,43.54 3.57,41.12 57.74,41.31 q 48.6,0.16 97.23,0 c 54.17,-0.11 56,1.1 56,-46.37 q 0.11,-328.2 0,-656.39 -0.03,-331.03 -0.1,-662.1 z"
       id="path4529" />
  </g>
</svg>
