<?xml version="1.0" encoding="UTF-8" standalone="no"?>
<!-- Created with Inkscape (http://www.inkscape.org/) -->

<svg
   xmlns:dc="http://purl.org/dc/elements/1.1/"
   xmlns:cc="http://creativecommons.org/ns#"
   xmlns:rdf="http://www.w3.org/1999/02/22-rdf-syntax-ns#"
   xmlns:svg="http://www.w3.org/2000/svg"
   xmlns="http://www.w3.org/2000/svg"
   xmlns:sodipodi="http://sodipodi.sourceforge.net/DTD/sodipodi-0.dtd"
   xmlns:inkscape="http://www.inkscape.org/namespaces/inkscape"
   width="391.01193mm"
   height="127.82557mm"
   viewBox="0 0 391.01193 127.82557"
   version="1.1"
   id="svg8"
   inkscape:version="0.92.4 5da689c313, 2019-01-14"
   sodipodi:docname="pcbOutline.svg">
  <defs
     id="defs2">
    <clipPath
       id="clipPath876"
       clipPathUnits="userSpaceOnUse">
      <path
         inkscape:connector-curvature="0"
         id="path874"
         d="m 5862,7754 h 18752 v 6318 H 5862 V 7754" />
    </clipPath>
    <clipPath
       id="clipPath968"
       clipPathUnits="userSpaceOnUse">
      <path
         inkscape:connector-curvature="0"
         id="path966"
         d="M 0,0 H 28062 V 19842 H 0 V 0" />
    </clipPath>
    <clipPath
       id="clipPath1040"
       clipPathUnits="userSpaceOnUse">
      <path
         inkscape:connector-curvature="0"
         id="path1038"
         d="M 0,0 H 28062 V 19842 H 0 V 0" />
    </clipPath>
    <clipPath
       id="clipPath1052"
       clipPathUnits="userSpaceOnUse">
      <path
         inkscape:connector-curvature="0"
         id="path1050"
         d="M 0,0 H 28062 V 19842 H 0 V 0" />
    </clipPath>
  </defs>
  <sodipodi:namedview
     id="base"
     pagecolor="#ffffff"
     bordercolor="#666666"
     borderopacity="1.0"
     inkscape:pageopacity="0.0"
     inkscape:pageshadow="2"
     inkscape:zoom="0.35"
     inkscape:cx="1060.6152"
     inkscape:cy="-304.2416"
     inkscape:document-units="mm"
     inkscape:current-layer="g868"
     showgrid="false"
     fit-margin-top="0"
     fit-margin-left="0"
     fit-margin-right="0"
     fit-margin-bottom="0"
     inkscape:window-width="1920"
     inkscape:window-height="1052"
     inkscape:window-x="1920"
     inkscape:window-y="200"
     inkscape:window-maximized="1" />
  <metadata
     id="metadata5">
    <rdf:RDF>
      <cc:Work
         rdf:about="">
        <dc:format>image/svg+xml</dc:format>
        <dc:type
           rdf:resource="http://purl.org/dc/dcmitype/StillImage" />
        <dc:title></dc:title>
      </cc:Work>
    </rdf:RDF>
  </metadata>
  <g
     inkscape:label="Layer 1"
     inkscape:groupmode="layer"
     id="layer1"
     transform="translate(77.721029,115.2481)">
    <g
       transform="matrix(0.02116667,0,0,-0.02116667,-160.91812,513.7981)"
       inkscape:label="DB01PCB Drawing"
       id="g868">
      <g
         id="g870"
         transform="translate(-2071.4282,15785.712)">
        <g
           clip-path="url(#clipPath876)"
           id="g872">
          <path
             inkscape:connector-curvature="0"
             id="path878"
             style="fill:none;stroke:#000000;stroke-width:24;stroke-linecap:round;stroke-linejoin:round;stroke-miterlimit:10;stroke-dasharray:none;stroke-opacity:1"
             d="m 20436,9280 v -4 l -1,-3 -2,-4 -2,-2 -3,-3 -3,-1 -3,-2 h -4 -3 l -4,1 -3,1 -4,3 -2,2 -2,4 -1,3 -1,4 v 3 l 1,4 2,4 3,3 3,3 4,2 h 3 l 4,1 4,-1 3,-1 4,-2 2,-3 2,-3 2,-3 1,-3 v -3" />
          <path
             inkscape:connector-curvature="0"
             id="path880"
             style="fill:none;stroke:#000000;stroke-width:24;stroke-linecap:round;stroke-linejoin:round;stroke-miterlimit:10;stroke-dasharray:none;stroke-opacity:1"
             d="m 20231,9280 v -4 l -1,-3 -2,-4 -2,-2 -3,-3 -3,-1 -3,-2 h -3 -4 l -3,1 -4,1 -3,3 -3,2 -2,4 -1,3 v 4 3 l 1,4 2,4 2,3 4,3 3,2 h 4 l 4,1 3,-1 4,-1 3,-2 3,-3 2,-3 1,-3 1,-3 v -3" />
          <path
             inkscape:connector-curvature="0"
             id="path882"
             style="fill:none;stroke:#000000;stroke-width:24;stroke-linecap:round;stroke-linejoin:round;stroke-miterlimit:10;stroke-dasharray:none;stroke-opacity:1"
             d="m 20334,9457 -1,-4 -1,-3 -1,-3 -3,-3 -2,-3 -3,-1 -4,-1 -3,-1 h -4 l -3,1 -4,2 -3,2 -2,3 -2,3 -2,3 v 4 4 l 1,4 2,3 3,3 3,3 3,2 4,1 h 4 l 4,-1 3,-1 3,-2 3,-3 2,-2 1,-3 1,-4 1,-3" />
          <g
             transform="rotate(90,-3410.5,9896)"
             id="g884">
            <path
               inkscape:connector-curvature="0"
               id="path886"
               style="fill:none;stroke:#000000;stroke-width:24;stroke-linecap:round;stroke-linejoin:round;stroke-miterlimit:10;stroke-dasharray:none;stroke-opacity:1"
               d="M 0,-89.5 C 49.42949,-89.5 89.5,-49.42949 89.5,0 89.5,49.42949 49.42949,89.5 0,89.5 -49.42949,89.5 -89.5,49.42949 -89.5,0 -89.5,-49.42949 -49.42949,-89.5 0,-89.5" />
          </g>
          <g
             transform="rotate(90,-3560.5,9871)"
             id="g888">
            <path
               inkscape:connector-curvature="0"
               id="path890"
               style="fill:none;stroke:#000000;stroke-width:24;stroke-linecap:round;stroke-linejoin:round;stroke-miterlimit:10;stroke-dasharray:none;stroke-opacity:1"
               d="M 0,-28.5 C 15.74012,-28.5 28.5,-15.74012 28.5,0 28.5,15.74012 15.74012,28.5 0,28.5 -15.74012,28.5 -28.5,15.74012 -28.5,0 -28.5,-15.74012 -15.74012,-28.5 0,-28.5" />
          </g>
          <g
             transform="rotate(90,-3470,10075.5)"
             id="g892">
            <path
               inkscape:connector-curvature="0"
               id="path894"
               style="fill:none;stroke:#000000;stroke-width:24;stroke-linecap:round;stroke-linejoin:round;stroke-miterlimit:10;stroke-dasharray:none;stroke-opacity:1"
               d="M 0,-28.5 C 15.74012,-28.5 28.5,-15.74012 28.5,0 28.5,15.74012 15.74012,28.5 0,28.5 -15.74012,28.5 -28.5,15.74012 -28.5,0 -28.5,-15.74012 -15.74012,-28.5 0,-28.5" />
          </g>
          <path
             inkscape:connector-curvature="0"
             id="path896"
             style="fill:none;stroke:#000000;stroke-width:24;stroke-linecap:round;stroke-linejoin:round;stroke-miterlimit:10;stroke-dasharray:none;stroke-opacity:1"
             d="m 15356,13825 v 48" />
          <path
             inkscape:connector-curvature="0"
             id="path898"
             style="fill:none;stroke:#000000;stroke-width:24;stroke-linecap:round;stroke-linejoin:round;stroke-miterlimit:10;stroke-dasharray:none;stroke-opacity:1"
             d="m 15356,13825.5 c 0,-26.233 21.267,-47.5 47.5,-47.5" />
          <path
             inkscape:connector-curvature="0"
             id="path900"
             style="fill:none;stroke:#000000;stroke-width:24;stroke-linecap:round;stroke-linejoin:round;stroke-miterlimit:10;stroke-dasharray:none;stroke-opacity:1"
             d="M 24226,13778 H 15403" />
          <g
             transform="rotate(90,5342,18884.5)"
             id="g902">
            <path
               inkscape:connector-curvature="0"
               id="path904"
               style="fill:none;stroke:#000000;stroke-width:24;stroke-linecap:round;stroke-linejoin:round;stroke-miterlimit:10;stroke-dasharray:none;stroke-opacity:1"
               d="m 0,-236.5 c 130.61536,0 236.5,105.88464 236.5,236.5" />
          </g>
          <path
             inkscape:connector-curvature="0"
             id="path906"
             style="fill:none;stroke:#000000;stroke-width:24;stroke-linecap:round;stroke-linejoin:round;stroke-miterlimit:10;stroke-dasharray:none;stroke-opacity:1"
             d="m 24462,8392 v 5150" />
          <path
             inkscape:connector-curvature="0"
             id="path908"
             style="fill:none;stroke:#000000;stroke-width:24;stroke-linecap:round;stroke-linejoin:round;stroke-miterlimit:10;stroke-dasharray:none;stroke-opacity:1"
             d="m 24226.5,8156 c 130.615,0 236.5,105.8848 236.5,236.5" />
          <path
             inkscape:connector-curvature="0"
             id="path910"
             style="fill:none;stroke:#000000;stroke-width:24;stroke-linecap:round;stroke-linejoin:round;stroke-miterlimit:10;stroke-dasharray:none;stroke-opacity:1"
             d="m 20661,8155 h 3565" />
          <g
             transform="rotate(-90,14385,-6276.5)"
             id="g912">
            <path
               inkscape:connector-curvature="0"
               id="path914"
               style="fill:none;stroke:#000000;stroke-width:24;stroke-linecap:round;stroke-linejoin:round;stroke-miterlimit:10;stroke-dasharray:none;stroke-opacity:1"
               d="m -47.5,0 c 0,-26.23353 21.26647,-47.5 47.5,-47.5" />
          </g>
          <path
             inkscape:connector-curvature="0"
             id="path916"
             style="fill:none;stroke:#000000;stroke-width:24;stroke-linecap:round;stroke-linejoin:round;stroke-miterlimit:10;stroke-dasharray:none;stroke-opacity:1"
             d="m 20613,7953 v 155" />
          <path
             inkscape:connector-curvature="0"
             id="path918"
             style="fill:none;stroke:#000000;stroke-width:24;stroke-linecap:round;stroke-linejoin:round;stroke-miterlimit:10;stroke-dasharray:none;stroke-opacity:1"
             d="m 20566.5,7906 c 26.234,0 47.5,21.2666 47.5,47.5" />
          <path
             inkscape:connector-curvature="0"
             id="path920"
             style="fill:none;stroke:#000000;stroke-width:24;stroke-linecap:round;stroke-linejoin:round;stroke-miterlimit:10;stroke-dasharray:none;stroke-opacity:1"
             d="m 18054,7906 h 2512" />
          <g
             transform="rotate(-90,13004,-5050.5)"
             id="g922">
            <path
               inkscape:connector-curvature="0"
               id="path924"
               style="fill:none;stroke:#000000;stroke-width:24;stroke-linecap:round;stroke-linejoin:round;stroke-miterlimit:10;stroke-dasharray:none;stroke-opacity:1"
               d="m 0,-47.5 c 26.23353,0 47.5,21.26647 47.5,47.5" />
          </g>
          <path
             inkscape:connector-curvature="0"
             id="path926"
             style="fill:none;stroke:#000000;stroke-width:24;stroke-linecap:round;stroke-linejoin:round;stroke-miterlimit:10;stroke-dasharray:none;stroke-opacity:1"
             d="M 18007,8108 V 7953" />
          <g
             transform="rotate(180,8979.75,4054.25)"
             id="g928">
            <path
               inkscape:connector-curvature="0"
               id="path930"
               style="fill:none;stroke:#000000;stroke-width:24;stroke-linecap:round;stroke-linejoin:round;stroke-miterlimit:10;stroke-dasharray:none;stroke-opacity:1"
               d="m -47.5,0 c 0,-26.23353 21.26647,-47.5 47.5,-47.5" />
          </g>
          <path
             inkscape:connector-curvature="0"
             id="path932"
             style="fill:none;stroke:#000000;stroke-width:24;stroke-linecap:round;stroke-linejoin:round;stroke-miterlimit:10;stroke-dasharray:none;stroke-opacity:1"
             d="M 6250,8155 H 17959" />
          <g
             transform="rotate(-90,7321.5,1071)"
             id="g934">
            <path
               inkscape:connector-curvature="0"
               id="path936"
               style="fill:none;stroke:#000000;stroke-width:24;stroke-linecap:round;stroke-linejoin:round;stroke-miterlimit:10;stroke-dasharray:none;stroke-opacity:1"
               d="m 0,-236.5 c 130.61536,0 236.5,105.88464 236.5,236.5" />
          </g>
          <path
             inkscape:connector-curvature="0"
             id="path938"
             style="fill:none;stroke:#000000;stroke-width:24;stroke-linecap:round;stroke-linejoin:round;stroke-miterlimit:10;stroke-dasharray:none;stroke-opacity:1"
             d="M 6014,13542 V 8392" />
          <g
             transform="rotate(180,3125.25,6771.25)"
             id="g940">
            <path
               inkscape:connector-curvature="0"
               id="path942"
               style="fill:none;stroke:#000000;stroke-width:24;stroke-linecap:round;stroke-linejoin:round;stroke-miterlimit:10;stroke-dasharray:none;stroke-opacity:1"
               d="m 0,-236.5 c 130.61536,0 236.5,105.88464 236.5,236.5" />
          </g>
          <path
             inkscape:connector-curvature="0"
             id="path944"
             style="fill:none;stroke:#000000;stroke-width:24;stroke-linecap:round;stroke-linejoin:round;stroke-miterlimit:10;stroke-dasharray:none;stroke-opacity:1"
             d="M 15120,13778 H 6250" />
          <g
             transform="rotate(90,647.5,14473)"
             id="g946">
            <path
               inkscape:connector-curvature="0"
               id="path948"
               style="fill:none;stroke:#000000;stroke-width:24;stroke-linecap:round;stroke-linejoin:round;stroke-miterlimit:10;stroke-dasharray:none;stroke-opacity:1"
               d="m -47.5,0 c 0,-26.23353 21.26647,-47.5 47.5,-47.5" />
          </g>
          <path
             inkscape:connector-curvature="0"
             id="path950"
             style="fill:none;stroke:#000000;stroke-width:24;stroke-linecap:round;stroke-linejoin:round;stroke-miterlimit:10;stroke-dasharray:none;stroke-opacity:1"
             d="m 15167,13873 v -48" />
          <g
             transform="rotate(180,7607.25,6936.75)"
             id="g952">
            <path
               inkscape:connector-curvature="0"
               id="path954"
               style="fill:none;stroke:#000000;stroke-width:24;stroke-linecap:round;stroke-linejoin:round;stroke-miterlimit:10;stroke-dasharray:none;stroke-opacity:1"
               d="m 0,-47.5 c 26.23353,0 47.5,21.26647 47.5,47.5" />
          </g>
          <path
             inkscape:connector-curvature="0"
             id="path956"
             style="fill:none;stroke:#000000;stroke-width:24;stroke-linecap:round;stroke-linejoin:round;stroke-miterlimit:10;stroke-dasharray:none;stroke-opacity:1"
             d="m 15309,13920 h -95" />
          <g
             transform="rotate(90,718,14591.5)"
             id="g958">
            <path
               inkscape:connector-curvature="0"
               id="path960"
               style="fill:none;stroke:#000000;stroke-width:24;stroke-linecap:round;stroke-linejoin:round;stroke-miterlimit:10;stroke-dasharray:none;stroke-opacity:1"
               d="m 0,-47.5 c 26.23353,0 47.5,21.26647 47.5,47.5" />
          </g>
        </g>
      </g>
    </g>
  </g>
</svg>
