<?xml version="1.0" encoding="UTF-8" standalone="no"?>
<!-- Created with Inkscape (http://www.inkscape.org/) -->

<svg
   xmlns:dc="http://purl.org/dc/elements/1.1/"
   xmlns:cc="http://creativecommons.org/ns#"
   xmlns:rdf="http://www.w3.org/1999/02/22-rdf-syntax-ns#"
   xmlns:svg="http://www.w3.org/2000/svg"
   xmlns="http://www.w3.org/2000/svg"
   xmlns:sodipodi="http://sodipodi.sourceforge.net/DTD/sodipodi-0.dtd"
   xmlns:inkscape="http://www.inkscape.org/namespaces/inkscape"
   width="7.5mm"
   height="14mm"
   viewBox="0 0 7.5 14"
   version="1.1"
   id="svg4691"
   inkscape:version="0.92.4 (5da689c313, 2019-01-14)"
   sodipodi:docname="Powered By Acheron Tall.svg">
  <defs
     id="defs4685" />
  <sodipodi:namedview
     id="base"
     pagecolor="#ffffff"
     bordercolor="#666666"
     borderopacity="1.0"
     inkscape:pageopacity="0.0"
     inkscape:pageshadow="2"
     inkscape:zoom="15.839192"
     inkscape:cx="26.051836"
     inkscape:cy="25.033051"
     inkscape:document-units="mm"
     inkscape:current-layer="layer1"
     showgrid="false"
     inkscape:window-width="1920"
     inkscape:window-height="1147"
     inkscape:window-x="-8"
     inkscape:window-y="-8"
     inkscape:window-maximized="1" />
  <metadata
     id="metadata4688">
    <rdf:RDF>
      <cc:Work
         rdf:about="">
        <dc:format>image/svg+xml</dc:format>
        <dc:type
           rdf:resource="http://purl.org/dc/dcmitype/StillImage" />
        <dc:title></dc:title>
      </cc:Work>
    </rdf:RDF>
  </metadata>
  <g
     inkscape:label="Layer 1"
     inkscape:groupmode="layer"
     id="layer1"
     transform="translate(0,-283)">
    <g
       aria-label="POWERED BY"
       style="font-style:normal;font-variant:normal;font-weight:normal;font-stretch:normal;font-size:2.23984838px;line-height:125%;font-family:'Mary Jane - Antique';-inkscape-font-specification:'Mary Jane - Antique';letter-spacing:0px;word-spacing:0px;fill:#000000;fill-opacity:1;stroke:none;stroke-width:0.27998105px;stroke-linecap:butt;stroke-linejoin:miter;stroke-opacity:1"
       id="text4003-0-0"
       transform="matrix(0.26779607,0,0,0.26779607,-2.5568994,206.0334)">
      <path
         d="m 10.269918,289.08704 v 0.77649 H 9.8727187 v -2.10248 h 1.7231903 q 0.179188,0 0.304619,0.0388 0.125432,0.0358 0.20308,0.10452 0.08063,0.0657 0.116472,0.15829 0.03584,0.0926 0.03584,0.20606 v 0.3106 q 0,0.11348 -0.03584,0.20606 -0.03584,0.0926 -0.116472,0.16127 -0.07765,0.0657 -0.20308,0.10453 -0.125431,0.0358 -0.304619,0.0358 z m 1.5888,-0.82127 q 0,-0.19412 -0.262809,-0.19412 h -1.325991 v 0.7048 h 1.325991 q 0.262809,0 0.262809,-0.19412 z"
         style="font-style:normal;font-variant:normal;font-weight:normal;font-stretch:normal;font-size:2.98646474px;font-family:Pirulen;-inkscape-font-specification:Pirulen;text-align:center;text-anchor:middle;fill:#000000;fill-opacity:1;stroke-width:0.27998105px"
         id="path5265"
         inkscape:connector-curvature="0" />
      <path
         d="m 13.177615,289.86353 q -0.179188,0 -0.304619,-0.0358 -0.125432,-0.0388 -0.206066,-0.10453 -0.07765,-0.0687 -0.113486,-0.16127 -0.03584,-0.0926 -0.03584,-0.20606 v -1.08708 q 0,-0.11348 0.03584,-0.20606 0.03584,-0.0926 0.113486,-0.15829 0.08063,-0.0687 0.206066,-0.10452 0.125431,-0.0388 0.304619,-0.0388 h 1.388706 q 0.179188,0 0.30462,0.0388 0.125431,0.0358 0.203079,0.10452 0.08063,0.0657 0.116472,0.15829 0.03584,0.0926 0.03584,0.20606 v 1.08708 q 0,0.11348 -0.03584,0.20606 -0.03584,0.0926 -0.116472,0.16127 -0.07765,0.0657 -0.203079,0.10453 -0.125432,0.0358 -0.30462,0.0358 z m 1.651515,-1.59776 q 0,-0.19412 -0.262809,-0.19412 h -1.388706 q -0.262809,0 -0.262809,0.19412 v 1.09304 q 0,0.19412 0.262809,0.19412 h 1.388706 q 0.262809,0 0.262809,-0.19412 z"
         style="font-style:normal;font-variant:normal;font-weight:normal;font-stretch:normal;font-size:2.98646474px;font-family:Pirulen;-inkscape-font-specification:Pirulen;text-align:center;text-anchor:middle;fill:#000000;fill-opacity:1;stroke-width:0.27998105px"
         id="path5267"
         inkscape:connector-curvature="0" />
      <path
         d="m 18.042846,289.86353 -0.728697,-1.6127 -0.74363,1.6127 h -0.289687 l -0.967615,-2.10248 h 0.382268 l 0.731684,1.6127 0.737656,-1.6127 h 0.29566 l 0.728698,1.6127 0.737657,-1.6127 h 0.385254 l -0.970602,2.10248 z"
         style="font-style:normal;font-variant:normal;font-weight:normal;font-stretch:normal;font-size:2.98646474px;font-family:Pirulen;-inkscape-font-specification:Pirulen;text-align:center;text-anchor:middle;fill:#000000;fill-opacity:1;stroke-width:0.27998105px"
         id="path5269"
         inkscape:connector-curvature="0" />
      <path
         d="m 19.508734,289.86353 v -2.10248 h 2.1622 v 0.3106 h -1.765001 v 0.52561 h 1.675407 v 0.3106 h -1.675407 v 0.64507 h 1.765001 v 0.3106 z"
         style="font-style:normal;font-variant:normal;font-weight:normal;font-stretch:normal;font-size:2.98646474px;font-family:Pirulen;-inkscape-font-specification:Pirulen;text-align:center;text-anchor:middle;fill:#000000;fill-opacity:1;stroke-width:0.27998105px"
         id="path5271"
         inkscape:connector-curvature="0" />
      <path
         d="m 24.009009,289.86353 -0.492766,-0.93775 h -1.107979 v 0.93775 h -0.3972 v -2.10248 h 1.785906 q 0.179188,0 0.30462,0.0388 0.125431,0.0358 0.203079,0.10452 0.08064,0.0657 0.116472,0.15829 0.03584,0.0926 0.03584,0.20606 v 0.14933 q 0,0.20308 -0.119459,0.34045 -0.119458,0.13439 -0.400186,0.16127 l 0.495753,0.94373 z m 0.05077,-1.59776 q 0,-0.19412 -0.262809,-0.19412 h -1.388706 v 0.54353 h 1.388706 q 0.262809,0 0.262809,-0.19412 z"
         style="font-style:normal;font-variant:normal;font-weight:normal;font-stretch:normal;font-size:2.98646474px;font-family:Pirulen;-inkscape-font-specification:Pirulen;text-align:center;text-anchor:middle;fill:#000000;fill-opacity:1;stroke-width:0.27998105px"
         id="path5273"
         inkscape:connector-curvature="0" />
      <path
         d="m 24.775878,289.86353 v -2.10248 h 2.1622 v 0.3106 h -1.765 v 0.52561 h 1.675406 v 0.3106 h -1.675406 v 0.64507 h 1.765 v 0.3106 z"
         style="font-style:normal;font-variant:normal;font-weight:normal;font-stretch:normal;font-size:2.98646474px;font-family:Pirulen;-inkscape-font-specification:Pirulen;text-align:center;text-anchor:middle;fill:#000000;fill-opacity:1;stroke-width:0.27998105px"
         id="path5275"
         inkscape:connector-curvature="0" />
      <path
         d="m 27.278208,289.86353 v -2.10248 h 1.926269 q 0.223985,0 0.373308,0.0388 0.149324,0.0388 0.238918,0.11647 0.08959,0.0777 0.125431,0.19412 0.03882,0.11647 0.03882,0.27177 v 0.88101 q 0,0.14932 -0.03882,0.2628 -0.03584,0.1105 -0.125431,0.18517 -0.08959,0.0747 -0.238918,0.11348 -0.149323,0.0388 -0.373308,0.0388 z m 2.30555,-1.48129 q 0,-0.0896 -0.01792,-0.14932 -0.01792,-0.0597 -0.06272,-0.0956 -0.04181,-0.0358 -0.116472,-0.0508 -0.07168,-0.0149 -0.182175,-0.0149 h -1.52907 v 1.48128 h 1.52907 q 0.1105,0 0.182175,-0.0149 0.07466,-0.0149 0.116472,-0.0478 0.0448,-0.0328 0.06272,-0.0896 0.01792,-0.0567 0.01792,-0.14036 z"
         style="font-style:normal;font-variant:normal;font-weight:normal;font-stretch:normal;font-size:2.98646474px;font-family:Pirulen;-inkscape-font-specification:Pirulen;text-align:center;text-anchor:middle;fill:#000000;fill-opacity:1;stroke-width:0.27998105px"
         id="path5277"
         inkscape:connector-curvature="0" />
      <path
         d="m 31.8454,289.86353 v -2.10248 h 1.711244 q 0.173215,0 0.29566,0.0329 0.125432,0.0299 0.200093,0.0896 0.07765,0.0567 0.113486,0.14335 0.03584,0.0836 0.03584,0.18815 v 0.19412 q 0,0.13737 -0.06869,0.23294 -0.0657,0.0926 -0.179188,0.11647 0.119458,0.0328 0.197107,0.11349 0.07765,0.0777 0.07765,0.22996 v 0.3076 q 0,0.0896 -0.03285,0.17322 -0.02986,0.0806 -0.107512,0.14335 -0.07466,0.0627 -0.20308,0.10154 -0.128418,0.0358 -0.322538,0.0358 z m 1.985999,-0.75558 q 0,-0.0985 -0.07466,-0.13738 -0.07466,-0.0418 -0.19412,-0.0418 H 32.2426 v 0.62417 h 1.320017 q 0.119459,0 0.19412,-0.0448 0.07466,-0.0448 0.07466,-0.17322 z m -0.02688,-0.87205 q 0,-0.0866 -0.05376,-0.12543 -0.05376,-0.0388 -0.19412,-0.0388 H 32.2426 v 0.54652 h 1.314044 q 0.140364,0 0.19412,-0.0388 0.05376,-0.0388 0.05376,-0.12544 z"
         style="font-style:normal;font-variant:normal;font-weight:normal;font-stretch:normal;font-size:2.98646474px;font-family:Pirulen;-inkscape-font-specification:Pirulen;text-align:center;text-anchor:middle;fill:#000000;fill-opacity:1;stroke-width:0.27998105px"
         id="path5279"
         inkscape:connector-curvature="0" />
      <path
         d="m 35.625984,289.86353 v -0.85413 l -1.349882,-1.24835 h 0.507699 l 1.03929,0.96165 1.03929,-0.96165 h 0.501726 l -1.340923,1.24835 v 0.85413 z"
         style="font-style:normal;font-variant:normal;font-weight:normal;font-stretch:normal;font-size:2.98646474px;font-family:Pirulen;-inkscape-font-specification:Pirulen;text-align:center;text-anchor:middle;fill:#000000;fill-opacity:1;stroke-width:0.27998105px"
         id="path5281"
         inkscape:connector-curvature="0" />
    </g>
    <g
       aria-label="ACHERON"
       transform="matrix(0.19519259,0,0,0.26360871,-1.5573307,229.92965)"
       style="font-style:normal;font-variant:normal;font-weight:normal;font-stretch:normal;font-size:3.28321004px;line-height:125%;font-family:Pirulen;-inkscape-font-specification:Pirulen;letter-spacing:0px;word-spacing:0px;fill:#000000;fill-opacity:1;stroke:none;stroke-width:0.41040125px;stroke-linecap:butt;stroke-linejoin:miter;stroke-opacity:1"
       id="text4007-7-9">
      <path
         d="m 13.926627,253.82281 -1.986343,-3.10263 -2.0191743,3.10263 H 9.111251 l 2.560904,-3.8523 h 0.530786 l 2.544488,3.8523 z"
         style="font-style:normal;font-variant:normal;font-weight:normal;font-stretch:normal;font-size:5.47201777px;font-family:Pirulen;-inkscape-font-specification:Pirulen;text-align:center;text-anchor:middle;fill:#000000;fill-opacity:1;stroke-width:0.41040125px"
         id="path5250"
         inkscape:connector-curvature="0" />
      <path
         d="m 16.046093,253.82281 q -0.328321,0 -0.558146,-0.0657 -0.229825,-0.0711 -0.377569,-0.19152 -0.142273,-0.12586 -0.207937,-0.29549 -0.06566,-0.16963 -0.06566,-0.37757 v -1.99181 q 0,-0.20794 0.06566,-0.37757 0.06566,-0.16963 0.207937,-0.29002 0.147744,-0.12586 0.377569,-0.19152 0.229825,-0.0711 0.558146,-0.0711 h 3.102634 v 0.56909 h -3.102634 q -0.481538,0 -0.481538,0.35569 v 2.00275 q 0,0.35569 0.481538,0.35569 h 3.102634 v 0.56908 z"
         style="font-style:normal;font-variant:normal;font-weight:normal;font-stretch:normal;font-size:5.47201777px;font-family:Pirulen;-inkscape-font-specification:Pirulen;text-align:center;text-anchor:middle;fill:#000000;fill-opacity:1;stroke-width:0.41040125px"
         id="path5252"
         inkscape:connector-curvature="0" />
      <path
         d="m 23.638688,253.82281 v -1.75104 h -3.151882 v 1.75104 h -0.727779 v -3.8523 h 0.727779 v 1.53217 h 3.151882 v -1.53217 h 0.727778 v 3.8523 z"
         style="font-style:normal;font-variant:normal;font-weight:normal;font-stretch:normal;font-size:5.47201777px;font-family:Pirulen;-inkscape-font-specification:Pirulen;text-align:center;text-anchor:middle;fill:#000000;fill-opacity:1;stroke-width:0.41040125px"
         id="path5254"
         inkscape:connector-curvature="0" />
      <path
         d="m 25.081421,253.82281 v -3.8523 h 3.961741 v 0.56909 h -3.233963 v 0.96308 h 3.069802 v 0.56909 h -3.069802 v 1.18196 h 3.233963 v 0.56908 z"
         style="font-style:normal;font-variant:normal;font-weight:normal;font-stretch:normal;font-size:5.47201777px;font-family:Pirulen;-inkscape-font-specification:Pirulen;text-align:center;text-anchor:middle;fill:#000000;fill-opacity:1;stroke-width:0.41040125px"
         id="path5256"
         inkscape:connector-curvature="0" />
      <path
         d="m 33.327152,253.82281 -0.902883,-1.71821 h -2.030118 v 1.71821 h -0.727779 v -3.8523 h 3.272267 q 0.328321,0 0.558146,0.0711 0.229824,0.0657 0.372097,0.19152 0.147744,0.12039 0.213409,0.29002 0.06566,0.16963 0.06566,0.37757 v 0.2736 q 0,0.3721 -0.218881,0.62381 -0.218881,0.24624 -0.73325,0.29549 l 0.908355,1.72915 z m 0.09302,-2.92752 q 0,-0.35569 -0.481537,-0.35569 h -2.544488 v 0.99591 h 2.544488 q 0.481537,0 0.481537,-0.35568 z"
         style="font-style:normal;font-variant:normal;font-weight:normal;font-stretch:normal;font-size:5.47201777px;font-family:Pirulen;-inkscape-font-specification:Pirulen;text-align:center;text-anchor:middle;fill:#000000;fill-opacity:1;stroke-width:0.41040125px"
         id="path5258"
         inkscape:connector-curvature="0" />
      <path
         d="m 35.914219,253.82281 q -0.328321,0 -0.558146,-0.0657 -0.229824,-0.0711 -0.377569,-0.19152 -0.142272,-0.12586 -0.207936,-0.29549 -0.06566,-0.16963 -0.06566,-0.37757 v -1.99181 q 0,-0.20794 0.06566,-0.37757 0.06566,-0.16963 0.207936,-0.29002 0.147745,-0.12586 0.377569,-0.19152 0.229825,-0.0711 0.558146,-0.0711 h 2.544489 q 0.328321,0 0.558145,0.0711 0.229825,0.0657 0.372098,0.19152 0.147744,0.12039 0.213408,0.29002 0.06566,0.16963 0.06566,0.37757 v 1.99181 q 0,0.20794 -0.06566,0.37757 -0.06566,0.16963 -0.213408,0.29549 -0.142273,0.12038 -0.372098,0.19152 -0.229824,0.0657 -0.558145,0.0657 z m 3.026026,-2.92752 q 0,-0.35569 -0.481537,-0.35569 h -2.544489 q -0.481537,0 -0.481537,0.35569 v 2.00275 q 0,0.35569 0.481537,0.35569 h 2.544489 q 0.481537,0 0.481537,-0.35569 z"
         style="font-style:normal;font-variant:normal;font-weight:normal;font-stretch:normal;font-size:5.47201777px;font-family:Pirulen;-inkscape-font-specification:Pirulen;text-align:center;text-anchor:middle;fill:#000000;fill-opacity:1;stroke-width:0.41040125px"
         id="path5260"
         inkscape:connector-curvature="0" />
      <path
         d="m 45.098146,253.82281 -4.109485,-2.99866 v 2.99866 h -0.634754 v -3.8523 h 0.629282 l 3.835884,2.86187 v -2.86187 h 0.634754 v 3.8523 z"
         style="font-style:normal;font-variant:normal;font-weight:normal;font-stretch:normal;font-size:5.47201777px;font-family:Pirulen;-inkscape-font-specification:Pirulen;text-align:center;text-anchor:middle;fill:#000000;fill-opacity:1;stroke-width:0.41040125px"
         id="path5262"
         inkscape:connector-curvature="0" />
    </g>
    <path
       sodipodi:nodetypes="cccccsscccccccssccccccscscscsc"
       inkscape:connector-curvature="0"
       id="path831-5"
       d="m 4.393059,291.66348 c -0.05303,-0.22485 -0.385467,-1.69221 -0.113891,-1.88022 0,0 1.008684,-0.32997 2.051351,-1.0339 l 0.0064,1.0905 -1.640705,1.06575 c 0.154386,1.04893 -0.105832,4.65444 -0.102347,4.65197 2.076297,-1.47767 2.308195,-3.12944 2.307132,-3.13262 -0.261198,-0.78476 -0.437496,-1.85174 0.208953,-2.1529 0.0019,-0.25127 -0.03894,-0.3041 -0.191929,-0.4888 0.384975,-2.82858 -0.504014,-4.57523 -2.689115,-5.48147 -0.399223,-0.27567 -0.460886,-0.47704 -0.460886,-0.47704 0,0 -0.06167,0.20137 -0.460893,0.47704 -2.1851,0.90624 -3.07408202,2.65289 -2.68911402,5.48147 -0.152988,0.1847 -0.193851,0.23753 -0.191928,0.4888 0.64644902,0.30116 0.47015104,1.36814 0.208953,2.1529 -0.0011,0.003 0.230835,1.65495 2.30713022,3.13262 0.0035,0.002 -0.256732,-3.60304 -0.102346,-4.65197 l -0.777344,-0.50382 -0.327311,1.28236 0.02106,-1.47325 -0.5571061,-0.37104 0.0064,-1.0905 c 0.2787771,0.18821 0.4823041,0.30753 0.7375881,0.44311 0.0307,0.0163 0.367878,-1.20668 0.367878,-1.20668 0,0 -0.122781,1.33686 -0.102569,1.34713 0.624317,0.31759 1.0484778,0.45034 1.0484778,0.45034 0.271575,0.18801 -0.06086,1.65537 -0.1138918,1.88022 -0.0046,0.0195 0.6250348,0.67258 0.6250348,0.67258 0,0 0.629627,-0.65307 0.625031,-0.67258 z"
       style="fill:#000000;fill-opacity:1;stroke:none;stroke-width:0.03060993;stroke-linecap:butt;stroke-linejoin:miter;stroke-miterlimit:4;stroke-dasharray:none;stroke-opacity:1"
       inkscape:export-xdpi="10000"
       inkscape:export-ydpi="10000" />
  </g>
</svg>
