<?xml version="1.0" encoding="UTF-8" standalone="no"?>
<svg
   xmlns:dc="http://purl.org/dc/elements/1.1/"
   xmlns:cc="http://creativecommons.org/ns#"
   xmlns:rdf="http://www.w3.org/1999/02/22-rdf-syntax-ns#"
   xmlns:svg="http://www.w3.org/2000/svg"
   xmlns="http://www.w3.org/2000/svg"
   xmlns:sodipodi="http://sodipodi.sourceforge.net/DTD/sodipodi-0.dtd"
   xmlns:inkscape="http://www.inkscape.org/namespaces/inkscape"
   sodipodi:docname="acheronLong.svg"
   inkscape:version="1.0 (4035a4fb49, 2020-05-01)"
   id="svg8"
   version="1.1"
   viewBox="0 0 19.999977 5.1641564"
   height="5.1641564mm"
   width="19.999977mm">
  <defs
     id="defs2" />
  <sodipodi:namedview
     inkscape:document-rotation="0"
     fit-margin-bottom="0"
     fit-margin-right="0"
     fit-margin-left="0"
     fit-margin-top="0"
     inkscape:window-maximized="1"
     inkscape:window-y="20"
     inkscape:window-x="0"
     inkscape:window-height="711"
     inkscape:window-width="1366"
     showguides="false"
     showgrid="false"
     inkscape:current-layer="g838"
     inkscape:document-units="mm"
     inkscape:cy="29.054586"
     inkscape:cx="90.722446"
     inkscape:zoom="3.959798"
     inkscape:pageshadow="2"
     inkscape:pageopacity="0.0"
     borderopacity="1.0"
     bordercolor="#666666"
     pagecolor="#ffffff"
     id="base" />
  <metadata
     id="metadata5">
    <rdf:RDF>
      <cc:Work
         rdf:about="">
        <dc:format>image/svg+xml</dc:format>
        <dc:type
           rdf:resource="http://purl.org/dc/dcmitype/StillImage" />
        <dc:title />
      </cc:Work>
    </rdf:RDF>
  </metadata>
  <g
     transform="translate(99.318296,-139.51237)"
     id="layer1"
     inkscape:groupmode="layer"
     inkscape:label="Layer 1">
    <flowRoot
       transform="scale(0.26458333)"
       style="font-style:normal;font-variant:normal;font-weight:normal;font-stretch:normal;font-size:40px;line-height:1.25;font-family:optima;-inkscape-font-specification:optima;letter-spacing:0px;word-spacing:0px;fill:#000000;fill-opacity:1;stroke:none"
       id="flowRoot815"
       xml:space="preserve"><flowRegion
         style="font-style:normal;font-variant:normal;font-weight:normal;font-stretch:normal;font-family:optima;-inkscape-font-specification:optima"
         id="flowRegion817"><rect
           style="font-style:normal;font-variant:normal;font-weight:normal;font-stretch:normal;font-family:optima;-inkscape-font-specification:optima"
           y="339.66254"
           x="-634.28571"
           height="371.42856"
           width="697.14288"
           id="rect819" /></flowRegion><flowPara
         style="font-style:normal;font-variant:normal;font-weight:normal;font-stretch:normal;font-family:optima;-inkscape-font-specification:optima"
         id="flowPara821" /></flowRoot>
    <text
       id="text825"
       y="103.2872"
       x="-118.49554"
       style="font-style:normal;font-variant:normal;font-weight:normal;font-stretch:normal;font-size:10.5833px;line-height:1.25;font-family:optima;-inkscape-font-specification:optima;letter-spacing:0px;word-spacing:0px;fill:#000000;fill-opacity:1;stroke:none;stroke-width:0.264583"
       xml:space="preserve" />
    <flowRoot
       style="font-style:normal;font-weight:normal;font-size:40px;line-height:1.25;font-family:sans-serif;letter-spacing:0px;word-spacing:0px;fill:#000000;fill-opacity:1;stroke:none"
       id="flowRoot843"
       xml:space="preserve"><flowRegion
         id="flowRegion845"><rect
           y="472.51968"
           x="-550.71429"
           height="292.14285"
           width="296.42856"
           id="rect847" /></flowRegion><flowPara
         id="flowPara849" /></flowRoot>
    <g
       id="g984"
       transform="matrix(0.26458333,0,0,0.26458333,-727.61969,-953.207)">
      <g
         inkscape:export-ydpi="1000"
         inkscape:export-xdpi="1000"
         transform="matrix(0.10098182,0,0,0.10098182,2138.3724,3730.1341)"
         id="g838">
        <flowRoot
           inkscape:export-ydpi="10000"
           inkscape:export-xdpi="10000"
           transform="matrix(2.295805,0,0,2.295805,4573.8947,3010.2037)"
           style="font-style:normal;font-variant:normal;font-weight:normal;font-stretch:normal;font-size:40px;line-height:1.25;font-family:'Noto Sans Old Italic';-inkscape-font-specification:'Noto Sans Old Italic, ';letter-spacing:0px;word-spacing:0px;fill:#000000;fill-opacity:1;stroke:none"
           id="flowRoot980"
           xml:space="preserve"><flowRegion
             style="font-style:normal;font-variant:normal;font-weight:normal;font-stretch:normal;font-family:'Noto Sans Old Italic';-inkscape-font-specification:'Noto Sans Old Italic, '"
             id="flowRegion976"><rect
               style="font-style:normal;font-variant:normal;font-weight:normal;font-stretch:normal;font-family:'Noto Sans Old Italic';-inkscape-font-specification:'Noto Sans Old Italic, '"
               y="433.23398"
               x="-914.28571"
               height="180.71428"
               width="852.85718"
               id="rect974" /></flowRegion><flowPara
             id="flowPara978"
             style="font-style:normal;font-variant:normal;font-weight:normal;font-stretch:normal;font-family:Pirulen;-inkscape-font-specification:Pirulen">acheron</flowPara></flowRoot>
        <path
           inkscape:export-ydpi="10000"
           inkscape:export-xdpi="10000"
           style="fill:#000000;fill-opacity:1;stroke:none;stroke-width:0.504258;stroke-linecap:butt;stroke-linejoin:miter;stroke-miterlimit:4;stroke-dasharray:none;stroke-opacity:1"
           d="m 2405.4763,4088.5477 c -0.8735,-3.7042 -6.35,-27.8769 -1.8762,-30.9742 0,0 16.6167,-5.4357 33.7933,-17.0321 l 0.1056,17.9645 -27.0285,17.557 c 2.5433,17.2795 -1.7434,76.6757 -1.686,76.6349 34.2042,-24.3426 38.0244,-51.5534 38.0069,-51.6058 -4.3029,-12.9278 -7.2071,-30.5049 3.4422,-35.4661 0.032,-4.1394 -0.6414,-5.0097 -3.1617,-8.0524 6.3419,-46.5971 -8.303,-75.3708 -44.2996,-90.3 -6.5767,-4.5414 -7.5925,-7.8587 -7.5925,-7.8587 0,0 -1.0159,3.3173 -7.5926,7.8587 -35.9966,14.9292 -50.6414,43.7029 -44.2996,90.3 -2.5202,3.0427 -3.1934,3.913 -3.1617,8.0524 10.6493,4.9612 7.7451,22.5383 3.4422,35.4661 -0.017,0.052 3.8027,27.2632 38.0069,51.6058 0.057,0.041 -4.2293,-59.3554 -1.686,-76.6349 l -12.8057,-8.2999 -5.392,21.1251 0.3468,-24.2697 -9.1776,-6.1125 0.1056,-17.9645 c 4.5925,3.1005 7.9453,5.0661 12.1508,7.2997 0.5058,0.2686 6.0603,-19.8784 6.0603,-19.8784 0,0 -2.0227,22.0229 -1.6897,22.1921 10.2848,5.2318 17.2723,7.4187 17.2723,7.4187 4.4738,3.0973 -1.0027,27.27 -1.8762,30.9742 -0.076,0.3215 10.2966,11.0799 10.2966,11.0799 0,0 10.3723,-10.7584 10.2965,-11.0799 z"
           id="path831"
           inkscape:connector-curvature="0"
           sodipodi:nodetypes="cccccsscccccccssccccccscscscsc" />
      </g>
    </g>
  </g>
</svg>
