<?xml version="1.0" encoding="UTF-8" standalone="no"?>
<!-- Created with Inkscape (http://www.inkscape.org/) -->

<svg
   width="60mm"
   height="68.663223mm"
   viewBox="0 0 60 68.66322"
   version="1.1"
   id="svg5"
   inkscape:version="1.1 (c4e8f9ed74, 2021-05-24)"
   sodipodi:docname="alexandria_logo.svg"
   inkscape:export-filename="/home/alvaro/Desktop/AcheronProject/file_hosting/alexandria/alexandria_logo.png"
   inkscape:export-xdpi="300"
   inkscape:export-ydpi="300"
   xmlns:inkscape="http://www.inkscape.org/namespaces/inkscape"
   xmlns:sodipodi="http://sodipodi.sourceforge.net/DTD/sodipodi-0.dtd"
   xmlns="http://www.w3.org/2000/svg"
   xmlns:svg="http://www.w3.org/2000/svg">
  <sodipodi:namedview
     id="namedview7"
     pagecolor="#ffffff"
     bordercolor="#666666"
     borderopacity="1.0"
     inkscape:pageshadow="2"
     inkscape:pageopacity="0"
     inkscape:pagecheckerboard="0"
     inkscape:document-units="mm"
     showgrid="false"
     inkscape:snap-intersection-paths="true"
     inkscape:object-nodes="true"
     inkscape:snap-others="true"
     inkscape:zoom="1.4142136"
     inkscape:cx="102.17693"
     inkscape:cy="97.934287"
     inkscape:window-width="1920"
     inkscape:window-height="1043"
     inkscape:window-x="1920"
     inkscape:window-y="200"
     inkscape:window-maximized="1"
     inkscape:current-layer="g1229"
     inkscape:snap-bbox="false"
     inkscape:snap-center="true"
     inkscape:snap-smooth-nodes="true"
     inkscape:object-paths="true"
     inkscape:snap-nodes="true" />
  <defs
     id="defs2">
    <rect
       x="-167.70653"
       y="-73.645426"
       width="403.14427"
       height="134.95841"
       id="rect2197" />
    <rect
       x="-21.024534"
       y="263.66977"
       width="866.83582"
       height="221.84244"
       id="rect3290" />
  </defs>
  <g
     inkscape:label="Layer 1"
     inkscape:groupmode="layer"
     id="layer1"
     transform="translate(3.2845814,-64.088091)">
    <g
       aria-label="alexandria"
       transform="scale(0.26458333)"
       id="text3288"
       style="font-size:40px;line-height:1.25;font-family:pirulen;-inkscape-font-specification:pirulen;white-space:pre;shape-inside:url(#rect3290)">
      <g
         id="g7926"
         transform="matrix(0.65555556,0,0,0.65555556,10.035071,59.588227)">
        <g
           id="g1149">
          <g
             id="g853"
             transform="translate(-22.131064,-108.01169)">
            <path
               style="fill:#000000;fill-opacity:1;stroke:none;stroke-width:0.989638px;stroke-linecap:butt;stroke-linejoin:miter;stroke-opacity:1"
               d="M 9.6667928,540.58527 160.8479,488.46501 312.029,540.58642 Z"
               id="path9592"
               sodipodi:nodetypes="cccc" />
            <path
               id="rect10497"
               style="stroke-width:7.48074;stroke-linecap:round;stroke-linejoin:round"
               d="M 9.6667958,548.14548 H 312.029 v 22.67716 H 9.6667958 Z"
               sodipodi:nodetypes="ccccc" />
            <path
               id="path11233"
               style="stroke-width:5.91404;stroke-linecap:round;stroke-linejoin:round"
               d="M 19.115615,737.12198 H 302.58018 v 15.11811 H 19.115615 Z"
               sodipodi:nodetypes="ccccc" />
            <path
               id="path11235"
               style="stroke-width:7.48074;stroke-linecap:round;stroke-linejoin:round"
               d="M 9.6667985,759.79916 H 312.029 v 22.67716 H 9.6667985 Z"
               sodipodi:nodetypes="ccccc" />
            <path
               id="path11141"
               style="stroke-width:8.64933;stroke-linecap:round;stroke-linejoin:round"
               d="m 179.74554,578.3817 h 37.79528 v 151.1811 h -37.79528 z" />
            <path
               id="path11374"
               style="stroke-width:8.64933;stroke-linecap:round;stroke-linejoin:round"
               d="m 104.15498,578.3817 h 37.79528 v 151.1811 h -37.79528 z" />
            <path
               id="path11456"
               style="stroke-width:8.64933;stroke-linecap:round;stroke-linejoin:round"
               d="m 255.3361,578.3817 h 37.79528 V 729.5628 H 255.3361 Z" />
            <path
               id="path11538"
               style="stroke-width:8.64933;stroke-linecap:round;stroke-linejoin:round"
               d="M 28.56442,578.3817 H 66.3597 V 729.5628 H 28.56442 Z" />
          </g>
          <path
             d="m 159.31683,420.59403 -18.6,-28.16 h -3.88 l -18.72,28.16 h 5.92 l 14.76,-22.68 14.52,22.68 z"
             id="path855"
             style="fill:#ffffff;fill-opacity:1" />
        </g>
      </g>
      <g
         id="g5382">
        <g
           id="g1452"
           transform="translate(0.01913094,-124.13423)">
          <g
             id="g4024"
             transform="translate(1.6074082,213.87676)" />
          <g
             id="g5537"
             transform="translate(8.0239258,126.35913)">
            <g
               id="g7426"
               transform="matrix(0.65555556,0,0,0.65555556,-7.0463766,82.66591)">
              <g
                 id="g1229"
                 inkscape:export-filename="/home/alvaro/Desktop/AcheronProject/file_hosting/alexandria/g1229.png"
                 inkscape:export-xdpi="2000"
                 inkscape:export-ydpi="2000">
                <g
                   id="g1300"
                   inkscape:export-filename="/home/alvaro/Desktop/AcheronProject/file_hosting/alexandria/g1300.png"
                   inkscape:export-xdpi="3000"
                   inkscape:export-ydpi="3000">
                  <path
                     id="path2700"
                     style="font-size:40px;line-height:1.25;font-family:pirulen;-inkscape-font-specification:pirulen;white-space:pre;shape-inside:url(#rect3290);stroke-width:2.67281"
                     d="m 131.15509,26.121048 -27.54297,41.4336 0.84375,0.75976 12.51953,-11.28125 h 6.83985 l -15.95899,13.88086 5.64844,5.02735 22.89062,-35.17188 17.22461,26.9043 v -10.64063 h 4.59961 l 7.34571,5.48242 -24.03907,-36.39453 z m 27.10352,37.15235 v 11.64648 0.002 l 16.94531,26.466792 h 16.03711 L 173.33087,74.271478 Z m -53.80274,10.68164 -12.480474,11.23828 h -0.08984 l -10.76563,16.195312 h 15.82422 L 110.99103,79.802688 Z"
                     transform="translate(1.6074085,213.87676)" />
                  <path
                     id="path3527"
                     d="m 153.61798,67.669928 v 17.52343 h 4.64063 v -10.27148 z"
                     sodipodi:nodetypes="ccccc"
                     style="font-size:40px;line-height:1.25;font-family:pirulen;-inkscape-font-specification:pirulen;white-space:pre;shape-inside:url(#rect3290)"
                     transform="translate(1.6074085,213.87676)" />
                  <path
                     id="path3628"
                     d="m 173.33087,74.271478 14.9668,10.92187 h 2.59961 v -28.16015 h -4.63867 v 20.91992 l -20.69336,-15.4375 v -0.002 z"
                     sodipodi:nodetypes="ccccccccc"
                     style="font-size:40px;line-height:1.25;font-family:pirulen;-inkscape-font-specification:pirulen;white-space:pre;shape-inside:url(#rect3290)"
                     transform="translate(1.6074085,213.87676)" />
                  <path
                     id="path3729"
                     d="M 103.61212,67.554648 91.93439,57.033168 h -6.91992 l 16.08007,14.08007 -16.08007,14.08008 h 6.87109 0.0898 z"
                     sodipodi:nodetypes="cccccccc"
                     style="font-size:40px;line-height:1.25;font-family:pirulen;-inkscape-font-specification:pirulen;white-space:pre;shape-inside:url(#rect3290)"
                     transform="translate(1.6074085,213.87676)" />
                  <path
                     d="m 20.174609,299.06992 -18.5999996,-28.16 h -3.88 l -18.7200004,28.16 h 5.92 l 14.76000037,-22.68 14.51999963,22.68 z"
                     id="path1428"
                     style="font-size:40px;line-height:1.25;font-family:pirulen;-inkscape-font-specification:pirulen;white-space:pre;shape-inside:url(#rect3290)"
                     transform="translate(0.5681682)" />
                  <path
                     d="m 50.974561,299.06992 v -4.16 h -22.84 v -24 h -5.36 v 28.16 z"
                     id="path1430"
                     style="font-size:40px;line-height:1.25;font-family:pirulen;-inkscape-font-specification:pirulen;white-space:pre;shape-inside:url(#rect3290)"
                     transform="translate(0.5681682)" />
                  <path
                     d="m 83.654498,299.06992 v -4.16 h -23.64 v -8.64 h 22.44 v -4.16 h -22.44 v -7.04 h 23.64 v -4.16 h -28.96 v 28.16 z"
                     id="path1432"
                     style="font-size:40px;line-height:1.25;font-family:pirulen;-inkscape-font-specification:pirulen;white-space:pre;shape-inside:url(#rect3290)"
                     transform="translate(0.5681682)" />
                  <path
                     d="m 197.7058,270.90992 v 28.16 h 25.8 c 7.96,0 10.4,-2.76 10.4,-8.04 v -11.8 c 0,-5.56 -2.44,-8.32 -10.4,-8.32 z m 25.8,4.16 c 3.96,0 5.08,0.92 5.08,4.16 v 11.76 c 0,3 -1.12,3.92 -5.08,3.92 h -20.48 v -19.84 z"
                     id="path1440"
                     sodipodi:nodetypes="ccssscccsssccc" />
                  <path
                     d="m 238.90574,270.90992 v 28.16 h 5.32 v -12.56 h 14.84 l 6.6,12.56 h 5.68 l -6.64,-12.64 c 5,-0.48 6.96,-3.08 6.96,-6.72 v -2 c 0,-4.04 -2.44,-6.8 -8.84,-6.8 -7.97333,0 -23.92,0 -23.92,0 z m 23.92,4.16 c 2.4,0 3.52,0.92 3.52,2.6 v 2.08 c 0,1.68 -1.12,2.6 -3.52,2.6 h -18.6 v -7.28 c 0,0 12.4,0 18.6,0 z"
                     id="path1442"
                     sodipodi:nodetypes="ccccccccsscccsssccc" />
                  <path
                     d="m 281.46572,299.06992 v -28.16 h -5.32 v 28.16 z"
                     id="path1444" />
                  <path
                     d="m 325.46564,299.06992 -18.6,-28.16 h -3.88 l -18.72,28.16 h 5.92 l 14.76,-22.68 14.52,22.68 z"
                     id="path1446" />
                  <path
                     id="path2698"
                     d="m 112.59844,293.67945 v 0 l 6.02344,5.39062 h 6.88086 l -10.39063,-9.25195 z"
                     sodipodi:nodetypes="cccccc" />
                </g>
              </g>
            </g>
          </g>
          <g
             id="g1858"
             transform="translate(-13.988513,-115.52835)" />
        </g>
      </g>
    </g>
  </g>
</svg>
