<?xml version="1.0" encoding="UTF-8" standalone="no"?>
<!-- Created with Inkscape (http://www.inkscape.org/) -->

<svg
   width="40mm"
   height="8.7033997mm"
   viewBox="0 0 40 8.7033994"
   version="1.1"
   id="svg5"
   inkscape:version="1.1 (c4e8f9ed74, 2021-05-24)"
   sodipodi:docname="powered_by_alexandria_long.svg"
   inkscape:export-filename="/home/alvaro/Desktop/AcheronProject/file_hosting/alexandria/alexandria_logo.png"
   inkscape:export-xdpi="300"
   inkscape:export-ydpi="300"
   xmlns:inkscape="http://www.inkscape.org/namespaces/inkscape"
   xmlns:sodipodi="http://sodipodi.sourceforge.net/DTD/sodipodi-0.dtd"
   xmlns="http://www.w3.org/2000/svg"
   xmlns:svg="http://www.w3.org/2000/svg">
  <sodipodi:namedview
     id="namedview7"
     pagecolor="#ffffff"
     bordercolor="#666666"
     borderopacity="1.0"
     inkscape:pageshadow="2"
     inkscape:pageopacity="0"
     inkscape:pagecheckerboard="0"
     inkscape:document-units="mm"
     showgrid="false"
     inkscape:snap-intersection-paths="true"
     inkscape:object-nodes="true"
     inkscape:snap-others="true"
     inkscape:zoom="5.3664984"
     inkscape:cx="71.461868"
     inkscape:cy="19.845343"
     inkscape:window-width="1920"
     inkscape:window-height="1043"
     inkscape:window-x="1920"
     inkscape:window-y="200"
     inkscape:window-maximized="1"
     inkscape:current-layer="text3288"
     inkscape:snap-bbox="false"
     inkscape:snap-center="true"
     inkscape:snap-smooth-nodes="true"
     inkscape:object-paths="true"
     inkscape:snap-nodes="true" />
  <defs
     id="defs2">
    <rect
       x="-73.633347"
       y="-17.184767"
       width="614.50281"
       height="55.429745"
       id="rect6003" />
    <rect
       x="-21.024534"
       y="263.66977"
       width="866.83582"
       height="221.84244"
       id="rect3290" />
    <rect
       x="-73.633347"
       y="-17.184767"
       width="614.50281"
       height="55.429745"
       id="rect19737" />
  </defs>
  <g
     inkscape:label="Layer 1"
     inkscape:groupmode="layer"
     id="layer1"
     transform="translate(5.4078691,-63.442139)">
    <g
       aria-label="alexandria"
       transform="scale(0.26458333)"
       id="text3288"
       style="font-size:40px;line-height:1.25;font-family:pirulen;-inkscape-font-specification:pirulen;white-space:pre;shape-inside:url(#rect3290)">
      <g
         id="g5670"
         transform="matrix(0.43703905,0,0,0.43703905,-11.506466,134.98752)">
        <g
           id="g4260"
           transform="matrix(1.5254167,0,0,1.5254167,-1.5024151,-129.70925)">
          <g
             id="g5382"
             style="font-size:40px;line-height:1.25;font-family:pirulen;-inkscape-font-specification:pirulen;white-space:pre;shape-inside:url(#rect3290)">
            <g
               id="g1452"
               transform="translate(0.01913094,-124.13423)">
              <g
                 id="g4024"
                 transform="translate(1.6074082,213.87676)" />
              <g
                 id="g5537"
                 transform="translate(8.0239258,126.35913)">
                <g
                   id="g7426"
                   transform="matrix(0.65555556,0,0,0.65555556,-7.0463766,82.66591)">
                  <path
                     id="path2700"
                     style="font-size:40px;line-height:1.25;font-family:pirulen;-inkscape-font-specification:pirulen;white-space:pre;shape-inside:url(#rect3290);stroke-width:2.67281"
                     d="m 131.15509,26.121048 -27.54297,41.4336 0.84375,0.75976 12.51953,-11.28125 h 6.83985 l -15.95899,13.88086 5.64844,5.02735 22.89062,-35.17188 17.22461,26.9043 v -10.64063 h 4.59961 l 7.34571,5.48242 -24.03907,-36.39453 z m 27.10352,37.15235 v 11.64648 0.002 l 16.94531,26.466792 h 16.03711 L 173.33087,74.271478 Z m -53.80274,10.68164 -12.480474,11.23828 h -0.08984 l -10.76563,16.195312 h 15.82422 L 110.99103,79.802688 Z"
                     transform="translate(1.6074085,213.87676)" />
                  <path
                     id="path3527"
                     d="m 153.61798,67.669928 v 17.52343 h 4.64063 v -10.27148 z"
                     sodipodi:nodetypes="ccccc"
                     style="font-size:40px;line-height:1.25;font-family:pirulen;-inkscape-font-specification:pirulen;white-space:pre;shape-inside:url(#rect3290)"
                     transform="translate(1.6074085,213.87676)" />
                  <path
                     id="path3628"
                     d="m 173.33087,74.271478 14.9668,10.92187 h 2.59961 v -28.16015 h -4.63867 v 20.91992 l -20.69336,-15.4375 v -0.002 z"
                     sodipodi:nodetypes="ccccccccc"
                     style="font-size:40px;line-height:1.25;font-family:pirulen;-inkscape-font-specification:pirulen;white-space:pre;shape-inside:url(#rect3290)"
                     transform="translate(1.6074085,213.87676)" />
                  <path
                     id="path3729"
                     d="M 103.61212,67.554648 91.93439,57.033168 h -6.91992 l 16.08007,14.08007 -16.08007,14.08008 h 6.87109 0.0898 z"
                     sodipodi:nodetypes="cccccccc"
                     style="font-size:40px;line-height:1.25;font-family:pirulen;-inkscape-font-specification:pirulen;white-space:pre;shape-inside:url(#rect3290)"
                     transform="translate(1.6074085,213.87676)" />
                  <path
                     d="m 20.174609,299.06992 -18.5999996,-28.16 h -3.88 l -18.7200004,28.16 h 5.92 l 14.76000037,-22.68 14.51999963,22.68 z"
                     id="path1428"
                     style="font-size:40px;line-height:1.25;font-family:pirulen;-inkscape-font-specification:pirulen;white-space:pre;shape-inside:url(#rect3290)"
                     transform="translate(0.5681682)" />
                  <path
                     d="m 50.974561,299.06992 v -4.16 h -22.84 v -24 h -5.36 v 28.16 z"
                     id="path1430"
                     style="font-size:40px;line-height:1.25;font-family:pirulen;-inkscape-font-specification:pirulen;white-space:pre;shape-inside:url(#rect3290)"
                     transform="translate(0.5681682)" />
                  <path
                     d="m 83.654498,299.06992 v -4.16 h -23.64 v -8.64 h 22.44 v -4.16 h -22.44 v -7.04 h 23.64 v -4.16 h -28.96 v 28.16 z"
                     id="path1432"
                     style="font-size:40px;line-height:1.25;font-family:pirulen;-inkscape-font-specification:pirulen;white-space:pre;shape-inside:url(#rect3290)"
                     transform="translate(0.5681682)" />
                  <path
                     d="m 215.02247,275.06992 h 8.48333 c 3.96,0 5.08,0.92 5.08,4.16 v 11.76 c 0,3 -1.12,3.92 -5.08,3.92 h -20.48 v -19.84 h 10.484 l 8.5e-4,-4.16 H 197.7058 v 28.16 h 25.8 c 7.96,0 10.4,-2.76 10.4,-8.04 v -11.8 c 0,-5.56 -2.44,-8.32 -10.4,-8.32 h -8.48333 z"
                     id="path1440"
                     sodipodi:nodetypes="cssssccccccsssscc" />
                  <path
                     d="m 253.99317,275.06992 h 8.83257 c 2.4,0 3.52,0.92 3.52,2.6 v 2.08 c 0,1.68 -1.12,2.6 -3.52,2.6 h -18.6 v -7.28 h 8.25562 v -4.16 h -13.57562 v 28.16 h 5.32 v -12.56 h 14.84 l 6.6,12.56 h 5.68 l -6.64,-12.64 c 5,-0.48 6.96,-3.08 6.96,-6.72 v -2 c 0,-4.04 -2.44,-6.8 -8.84,-6.8 h -8.83257 z"
                     id="path1442"
                     sodipodi:nodetypes="cssssccccccccccccssscc" />
                  <path
                     d="m 281.46572,299.06992 v -28.16 h -5.32 v 28.16 z"
                     id="path1444" />
                  <path
                     d="m 325.46564,299.06992 -18.6,-28.16 h -3.88 l -18.72,28.16 h 5.92 l 14.76,-22.68 14.52,22.68 z"
                     id="path1446" />
                  <path
                     id="path2698"
                     d="m 112.59844,293.67945 v 0 l 6.02344,5.39062 h 6.88086 l -10.39063,-9.25195 z"
                     sodipodi:nodetypes="cccccc" />
                </g>
              </g>
              <g
                 id="g1858"
                 transform="translate(-13.988513,-115.52835)" />
            </g>
          </g>
        </g>
        <path
           d="m -12.612689,247.57745 h 2.257334 c 0.8700266,0 1.2760395,0.33351 1.2760395,0.94253 v 1.53705 c 0,0.60902 -0.4060129,0.94253 -1.2760395,0.94253 h -6.438198 v -3.42211 h 3.218733 l 0.100351,-1.50804 h -5.247647 v 10.20831 h 1.92856 v -3.77011 h 6.438198 c 2.3200713,0 3.2045986,-1.00053 3.2045986,-2.46508 v -1.50805 c 0,-1.46454 -0.8845273,-2.46507 -3.2045986,-2.46507 h -2.210291 z"
           style="font-family:Pirulen;-inkscape-font-specification:Pirulen;stroke-width:0.362511"
           id="path1026"
           sodipodi:nodetypes="cssssccccccccsssscc" />
        <path
           d="m 22.386592,256.27772 4.712645,-10.20831 h -1.870558 l -3.58161,7.83024 -3.538109,-7.83024 h -1.435544 l -3.581611,7.83024 -3.5526094,-7.83024 H 7.6831383 l 4.6981447,10.20831 h 1.406544 l 3.610611,-7.83024 3.538109,7.83024 z"
           style="font-family:Pirulen;-inkscape-font-specification:Pirulen;stroke-width:0.362511"
           id="path1030" />
        <path
           d="m 38.540073,256.27772 v -1.50804 h -8.569765 v -3.1321 h 8.134751 v -1.50805 h -8.134751 v -2.55208 h 8.569765 v -1.50804 H 28.041749 v 10.20831 z"
           style="font-family:Pirulen;-inkscape-font-specification:Pirulen;stroke-width:0.362511"
           id="path1032" />
        <path
           d="m 64.104341,256.27772 v -1.50804 h -8.569764 v -3.1321 h 8.134751 v -1.50805 h -8.134751 v -2.55208 h 8.569764 v -1.50804 H 53.606018 v 10.20831 z"
           style="font-family:Pirulen;-inkscape-font-specification:Pirulen;stroke-width:0.362511"
           id="path1036" />
        <path
           d="m 71.915266,247.57745 -0.03705,-1.50804 h 3.217462 c 2.885589,0 3.770116,1.00053 3.770116,3.01609 v 4.27763 c 0,1.91406 -0.884527,2.91459 -3.770116,2.91459 h -9.352789 v -10.20831 h 4.891515 v 1.50804 h -2.962955 v 7.19223 h 7.424229 c 1.435544,0 1.841557,-0.33351 1.841557,-1.42105 v -4.26313 c 0,-1.17454 -0.406013,-1.50805 -1.841557,-1.50805 z"
           style="font-family:Pirulen;-inkscape-font-specification:Pirulen;stroke-width:0.362511"
           id="path1038"
           sodipodi:nodetypes="ccssssccccccssscc" />
        <path
           d="m 108.20013,256.27772 v -4.14713 l 6.5107,-6.06118 h -2.43608 l -5.04615,4.66914 -5.04616,-4.66914 h -2.465076 l 6.554206,6.06118 v 4.14713 z"
           style="font-family:Pirulen;-inkscape-font-specification:Pirulen;stroke-width:0.362511"
           id="path1042" />
        <path
           d="m 201.80638,310.51797 h 3.0284 c 0.74752,0 1.26937,0.22567 1.26937,0.84625 v 1.0719 c 0,0.80394 -0.52185,1.0296 -1.26937,1.0296 h -6.23399 v -2.94775 h 2.52278 l -0.16576,-1.46682 h -2.35702 v -2.58104 h 2.80401 l 0.006,-1.46682 h -4.68572 v 9.92925 h 8.10983 c 2.45411,0 3.14521,-1.01549 3.14521,-2.14381 v -1.45272 c 0,-0.95908 -0.55006,-1.42451 -1.29758,-1.62197 0.70521,-0.14104 1.17064,-0.78983 1.17064,-1.65017 v -0.91677 c 0,-1.32578 -0.84624,-2.14381 -3.04648,-2.14381 h -2.72755 l -0.034,1.46682 h 2.76159 c 0.87446,0 1.17064,0.22566 1.17064,0.77572 v 1.0296 c 0,0.55006 -0.29618,0.77572 -1.17064,0.77572 h -3.37694 z"
           style="font-family:Pirulen;-inkscape-font-specification:Pirulen;stroke-width:0.352601"
           id="path1007"
           sodipodi:nodetypes="cssssccccccccccssscssccccssscc" />
        <path
           d="m 216.4424,314.93254 v -4.03376 l 6.33272,-5.89549 h -2.36948 l -4.90821,4.5415 -4.90822,-4.5415 h -2.39769 l 6.37504,5.89549 v 4.03376 z"
           style="font-family:Pirulen;-inkscape-font-specification:Pirulen;stroke-width:0.352601"
           id="path1009" />
        <path
           d="m 244.35428,314.93254 -6.55839,-9.92925 h -1.36809 l -6.6007,9.92925 h 2.0874 l 5.2044,-7.997 5.11977,7.997 z"
           style="font-family:Pirulen;-inkscape-font-specification:Pirulen;stroke-width:0.352601"
           id="path1011" />
        <path
           d="m 256.3145,314.93254 v -1.46682 h -7.997 c -0.84624,0 -1.24116,-0.32439 -1.24116,-0.91676 v -5.16209 c 0,-0.59237 0.39492,-0.91676 1.24116,-0.91676 h 7.997 v -1.46682 h -7.997 c -2.25665,0 -3.11699,0.97318 -3.11699,2.39769 v 5.13387 c 0,1.42451 0.86034,2.39769 3.11699,2.39769 z"
           style="font-family:Pirulen;-inkscape-font-specification:Pirulen;stroke-width:0.352601"
           id="path1013" />
        <path
           d="m 269.76975,314.93254 v -9.92925 h -1.87584 v 3.94913 h -8.12393 v -3.94913 h -1.87584 v 9.92925 h 1.87584 v -4.5133 h 8.12393 v 4.5133 z"
           style="font-family:Pirulen;-inkscape-font-specification:Pirulen;stroke-width:0.352601"
           id="path1015" />
        <path
           d="m 281.81459,314.93254 v -1.46682 h -8.33549 v -3.04648 h 7.91237 v -1.46682 h -7.91237 v -2.48231 h 8.33549 v -1.46682 h -10.21133 v 9.92925 z"
           style="font-family:Pirulen;-inkscape-font-specification:Pirulen;stroke-width:0.352601"
           id="path1017" />
        <path
           d="m 288.5005,306.47011 h 3.34208 c 0.84624,0 1.24115,0.32439 1.24115,0.91676 v 0.73341 c 0,0.59237 -0.39491,0.91677 -1.24115,0.91677 h -6.55839 v -2.56694 h 2.36969 v -1.46682 h -4.24553 v 9.92925 h 1.87584 v -4.42867 h 5.2326 l 2.32717,4.42867 h 2.00278 l -2.34127,-4.45688 c 1.763,-0.16925 2.4541,-1.08601 2.4541,-2.36948 v -0.7052 c 0,-1.42451 -0.86034,-2.39769 -3.11699,-2.39769 h -3.34208 z"
           style="font-family:Pirulen;-inkscape-font-specification:Pirulen;stroke-width:0.352601"
           id="path1019"
           sodipodi:nodetypes="cssssccccccccccccssscc" />
        <path
           d="m 303.09804,306.47011 h 2.97552 c 0.84624,0 1.24116,0.32439 1.24116,0.91676 v 5.16209 c 0,0.59237 -0.39492,0.91676 -1.24116,0.91676 h -6.55839 c -0.84624,0 -1.24115,-0.32439 -1.24115,-0.91676 v -5.16209 c 0,-0.59237 0.39491,-0.91676 1.24115,-0.91676 h 2.88365 v -1.46682 h -2.88365 c -2.25665,0 -3.11699,0.97318 -3.11699,2.39769 v 5.13387 c 0,1.42451 0.86034,2.39769 3.11699,2.39769 h 6.55839 c 2.25665,0 3.117,-0.97318 3.117,-2.39769 v -5.13387 c 0,-1.42451 -0.86035,-2.39769 -3.117,-2.39769 h -2.97552 z"
           style="font-family:Pirulen;-inkscape-font-specification:Pirulen;stroke-width:0.352601"
           id="path1021"
           sodipodi:nodetypes="cssssssssccsssssssscc" />
        <path
           d="m 324.09852,314.93254 v -9.92925 h -1.63607 v 7.37642 l -9.88695,-7.37642 h -1.62196 v 9.92925 h 1.63607 v -7.72902 l 10.59214,7.72902 z"
           style="font-family:Pirulen;-inkscape-font-specification:Pirulen;stroke-width:0.352601"
           id="path1023" />
        <path
           d="m 93.153208,251.73964 h 3.113936 c 0.76863,0 1.30522,0.23203 1.30522,0.87014 v 1.10219 c 0,0.82663 -0.53659,1.05867 -1.30522,1.05867 h -6.410063 v -3.031 h 2.59403 l -0.170436,-1.50825 h -2.423594 v -2.65394 h 2.883211 l 0.0061,-1.50825 h -4.818063 v 10.20969 h 8.338875 c 2.52342,0 3.234043,-1.04417 3.234043,-2.20437 v -1.49375 c 0,-0.98615 -0.565603,-1.46474 -1.334223,-1.66776 0.72512,-0.14503 1.203703,-0.81214 1.203703,-1.69679 v -0.94265 c 0,-1.36323 -0.870153,-2.20437 -3.132523,-2.20437 h -2.80459 l -0.03499,1.50825 h 2.83959 c 0.89915,0 1.20369,0.23204 1.20369,0.79764 v 1.05866 c 0,0.5656 -0.30454,0.79764 -1.20369,0.79764 h -3.47232 z"
           style="font-family:Pirulen;-inkscape-font-specification:Pirulen;stroke-width:0.362559"
           id="path3333"
           sodipodi:nodetypes="cssssccccccccccssscssccccssscc" />
        <path
           d="m 45.414085,247.57766 h 3.435838 c 0.869981,0 1.275969,0.33349 1.275969,0.94248 v 0.75398 c 0,0.60899 -0.405988,0.94249 -1.275969,0.94249 h -6.742378 v -2.63895 h 2.436169 v -1.50797 h -4.364633 v 10.2078 h 1.928464 v -4.55291 h 5.379395 l 2.392456,4.55291 h 2.058965 l -2.406951,-4.58191 c 1.812459,-0.174 2.522947,-1.11648 2.522947,-2.43595 v -0.72499 c 0,-1.46447 -0.884476,-2.46495 -3.204434,-2.46495 h -3.435838 z"
           style="font-family:Pirulen;-inkscape-font-specification:Pirulen;stroke-width:0.362493"
           id="path3533"
           sodipodi:nodetypes="cssssccccccccccccssscc" />
        <path
           d="m 1.0132263,247.57689 h 3.0593438 c 0.8700796,0 1.276125,0.33353 1.276125,0.94259 v 5.30751 c 0,0.60906 -0.4060454,0.94259 -1.276125,0.94259 h -6.7431475 c -0.8700795,0 -1.2761146,-0.33353 -1.2761146,-0.94259 v -5.30751 c 0,-0.60906 0.4060351,-0.94259 1.2761146,-0.94259 h 2.9648858 v -1.50814 h -2.9648858 c -2.320222,0 -3.204799,1.0006 -3.204799,2.46524 v 5.27849 c 0,1.46464 0.884577,2.46524 3.204799,2.46524 h 6.7431475 c 2.3202225,0 3.2048096,-1.0006 3.2048096,-2.46524 v -5.27849 c 0,-1.46464 -0.8845871,-2.46524 -3.2048096,-2.46524 H 1.0132263 Z"
           style="font-family:Pirulen;-inkscape-font-specification:Pirulen;stroke-width:0.362534"
           id="path3535"
           sodipodi:nodetypes="cssssssssccsssssssscc" />
      </g>
    </g>
  </g>
</svg>
